<svg id="svg" version="1.1" xmlns="http://www.w3.org/2000/svg" xmlns:xlink="http://www.w3.org/1999/xlink" width="200" height="200" viewBox="0, 0, 400,400"><g id="svgg"><path id="path0" d="M288.493 36.400 C 288.493 37.170,288.575 37.485,288.676 37.100 C 288.776 36.715,288.776 36.085,288.676 35.700 C 288.575 35.315,288.493 35.630,288.493 36.400 M286.175 41.300 L 285.000 42.600 286.300 41.425 C 287.015 40.779,287.600 40.194,287.600 40.125 C 287.600 39.816,287.270 40.088,286.175 41.300 M300.500 49.076 C 300.885 49.176,301.515 49.176,301.900 49.076 C 302.285 48.975,301.970 48.893,301.200 48.893 C 300.430 48.893,300.115 48.975,300.500 49.076 M90.433 50.900 C 90.525 50.955,91.140 51.450,91.800 52.000 L 93.000 53.000 92.030 51.900 C 91.497 51.295,90.882 50.800,90.664 50.800 C 90.445 50.800,90.342 50.845,90.433 50.900 M272.192 55.300 L 268.600 59.000 272.300 55.408 C 275.736 52.072,276.182 51.600,275.892 51.600 C 275.832 51.600,274.167 53.265,272.192 55.300 M266.783 60.620 C 266.356 61.135,266.395 61.355,267.012 61.920 C 267.715 62.562,267.727 62.561,267.229 61.900 C 266.807 61.340,266.802 61.080,267.200 60.600 C 267.474 60.270,267.608 60.000,267.498 60.000 C 267.388 60.000,267.066 60.279,266.783 60.620 M271.583 65.700 C 272.564 66.745,273.419 67.600,273.483 67.600 C 273.784 67.600,273.466 67.241,271.700 65.583 L 269.800 63.800 271.583 65.700 M274.000 68.248 C 274.000 68.458,274.553 69.253,275.229 70.015 L 276.458 71.400 275.345 69.800 C 274.733 68.920,274.180 68.125,274.116 68.033 C 274.052 67.942,274.000 68.038,274.000 68.248 M239.400 70.020 C 238.611 70.235,239.022 70.270,240.600 70.123 C 241.920 70.000,243.075 69.832,243.167 69.750 C 243.464 69.482,240.634 69.685,239.400 70.020 M250.833 69.747 C 250.925 69.828,251.720 70.004,252.600 70.138 C 253.715 70.307,253.958 70.271,253.400 70.019 C 252.632 69.671,250.490 69.444,250.833 69.747 M234.800 70.800 C 234.008 71.054,233.967 71.120,234.600 71.120 C 235.040 71.120,235.850 70.976,236.400 70.800 C 237.192 70.546,237.233 70.480,236.600 70.480 C 236.160 70.480,235.350 70.624,234.800 70.800 M231.400 71.600 L 230.600 71.944 231.400 71.966 C 231.840 71.978,232.470 71.813,232.800 71.600 C 233.595 71.086,232.596 71.086,231.400 71.600 M257.633 71.349 C 258.045 71.717,260.400 72.800,260.400 72.621 C 260.400 72.390,258.182 71.200,257.753 71.200 C 257.596 71.200,257.542 71.267,257.633 71.349 M70.687 73.209 C 71.395 73.951,72.042 74.478,72.125 74.379 C 72.208 74.281,71.629 73.673,70.838 73.029 L 69.400 71.858 70.687 73.209 M263.164 75.133 C 263.380 75.536,263.874 76.121,264.263 76.433 C 264.764 76.835,264.704 76.622,264.057 75.700 C 263.069 74.291,262.531 73.949,263.164 75.133 M217.600 76.291 C 215.902 76.935,212.800 78.450,212.800 78.635 C 212.800 78.752,212.935 78.776,213.100 78.690 C 214.380 78.018,217.263 76.800,217.572 76.800 C 217.781 76.800,218.064 76.620,218.200 76.400 C 218.471 75.962,218.468 75.962,217.600 76.291 M88.600 80.000 C 90.571 81.980,92.273 83.600,92.383 83.600 C 92.493 83.600,90.971 81.980,89.000 80.000 C 87.029 78.020,85.327 76.400,85.217 76.400 C 85.107 76.400,86.629 78.020,88.600 80.000 M335.649 80.600 C 335.616 81.040,335.496 81.850,335.383 82.400 L 335.177 83.400 335.606 82.419 C 335.842 81.879,335.961 81.069,335.872 80.619 C 335.713 79.821,335.707 79.821,335.649 80.600 M206.300 81.829 C 204.805 82.640,204.896 82.978,206.400 82.200 C 207.060 81.859,207.600 81.494,207.600 81.390 C 207.600 81.132,207.557 81.147,206.300 81.829 M329.600 82.800 C 328.830 83.222,328.344 83.574,328.520 83.583 C 328.944 83.605,331.200 82.432,331.200 82.190 C 331.200 81.928,331.177 81.937,329.600 82.800 M267.472 85.400 C 267.599 86.500,267.769 87.475,267.851 87.567 C 268.132 87.882,267.920 85.399,267.580 84.400 C 267.351 83.726,267.316 84.051,267.472 85.400 M113.400 87.435 L 112.200 88.466 113.500 87.606 C 114.215 87.133,114.800 86.668,114.800 86.573 C 114.800 86.273,114.631 86.378,113.400 87.435 M192.412 92.188 C 190.779 93.832,189.524 95.230,189.622 95.295 C 189.720 95.360,191.138 94.016,192.772 92.307 C 196.565 88.343,196.313 88.261,192.412 92.188 M103.000 94.400 C 103.859 95.280,104.652 96.000,104.762 96.000 C 104.872 96.000,104.259 95.280,103.400 94.400 C 102.541 93.520,101.748 92.800,101.638 92.800 C 101.528 92.800,102.141 93.520,103.000 94.400 M267.466 95.968 C 267.319 97.378,267.274 98.607,267.366 98.700 C 267.614 98.947,268.115 94.546,267.910 93.930 C 267.813 93.640,267.614 94.557,267.466 95.968 M132.316 94.697 C 133.699 94.775,135.859 94.774,137.116 94.695 C 138.372 94.616,137.240 94.552,134.600 94.553 C 131.960 94.553,130.932 94.618,132.316 94.697 M328.637 96.700 C 327.825 97.965,327.579 98.508,328.090 97.906 C 329.100 96.718,330.547 94.400,330.279 94.400 C 330.188 94.400,329.449 95.435,328.637 96.700 M142.705 95.483 C 143.202 95.579,143.922 95.575,144.305 95.475 C 144.687 95.375,144.280 95.296,143.400 95.301 C 142.520 95.305,142.207 95.387,142.705 95.483 M146.833 96.143 C 146.925 96.221,147.630 96.401,148.400 96.542 C 149.385 96.723,149.622 96.682,149.200 96.406 C 148.658 96.050,146.437 95.803,146.833 96.143 M120.000 98.144 C 119.010 98.872,117.935 99.813,117.612 100.234 C 117.121 100.874,117.186 100.861,118.012 100.152 C 118.555 99.686,119.792 98.741,120.760 98.052 C 121.728 97.364,122.358 96.804,122.160 96.810 C 121.962 96.815,120.990 97.416,120.000 98.144 M152.833 97.744 C 152.925 97.823,153.540 98.008,154.200 98.156 C 155.076 98.352,155.238 98.315,154.800 98.018 C 154.260 97.653,152.432 97.398,152.833 97.744 M296.800 99.200 C 296.030 99.622,295.544 99.974,295.720 99.983 C 296.144 100.005,298.400 98.832,298.400 98.590 C 298.400 98.328,298.377 98.337,296.800 99.200 M321.600 104.896 C 319.510 106.908,318.700 107.814,319.800 106.909 C 321.769 105.290,325.946 101.182,325.585 101.219 C 325.483 101.230,323.690 102.885,321.600 104.896 M114.249 106.615 C 114.112 106.973,114.015 107.566,114.034 107.933 C 114.053 108.300,114.227 108.069,114.421 107.420 C 114.798 106.158,114.665 105.533,114.249 106.615 M169.829 107.429 C 169.681 108.015,169.638 108.572,169.732 108.666 C 169.827 108.760,170.024 108.358,170.171 107.771 C 170.319 107.185,170.362 106.628,170.268 106.534 C 170.173 106.440,169.976 106.842,169.829 107.429 M250.700 108.027 C 249.875 108.463,249.200 108.908,249.200 109.018 C 249.200 109.127,249.920 108.849,250.800 108.400 C 251.680 107.951,252.400 107.497,252.400 107.392 C 252.400 107.130,252.397 107.131,250.700 108.027 M315.487 109.768 C 313.126 111.402,312.564 111.975,314.306 110.972 C 315.650 110.199,317.956 108.423,317.600 108.436 C 317.490 108.441,316.539 109.040,315.487 109.768 M182.200 110.000 C 182.048 110.691,182.007 111.341,182.109 111.442 C 182.211 111.544,182.409 111.053,182.550 110.350 C 182.883 108.683,182.560 108.360,182.200 110.000 M169.018 111.818 C 168.865 112.839,168.822 113.755,168.922 113.855 C 169.022 113.955,169.229 113.202,169.382 112.182 C 169.535 111.161,169.578 110.245,169.478 110.145 C 169.378 110.045,169.171 110.798,169.018 111.818 M113.357 116.000 C 113.357 118.970,113.420 120.185,113.497 118.700 C 113.574 117.215,113.574 114.785,113.497 113.300 C 113.420 111.815,113.357 113.030,113.357 116.000 M181.457 113.900 C 181.141 115.812,181.198 122.710,181.540 123.920 C 181.683 124.427,181.800 122.042,181.800 118.620 C 181.800 111.726,181.805 111.794,181.457 113.900 M240.271 114.900 L 237.734 117.400 240.167 115.227 C 241.505 114.032,242.771 112.907,242.980 112.727 C 243.189 112.547,243.236 112.400,243.084 112.400 C 242.932 112.400,241.666 113.525,240.271 114.900 M262.800 116.200 C 261.810 116.730,261.142 117.172,261.316 117.182 C 261.741 117.206,264.800 115.634,264.800 115.392 C 264.800 115.127,264.817 115.120,262.800 116.200 M297.000 117.600 C 296.496 117.817,296.422 117.944,296.800 117.944 C 297.130 117.944,297.760 117.789,298.200 117.600 C 298.704 117.383,298.778 117.256,298.400 117.256 C 298.070 117.256,297.440 117.411,297.000 117.600 M236.493 119.100 C 235.457 120.596,235.121 121.200,235.323 121.200 C 235.417 121.200,235.970 120.480,236.553 119.600 C 237.736 117.812,237.684 117.379,236.493 119.100 M290.600 118.400 L 288.200 118.666 290.400 118.685 C 291.610 118.696,293.140 118.568,293.800 118.400 C 295.338 118.009,294.137 118.009,290.600 118.400 M340.000 119.200 C 340.550 119.376,341.360 119.526,341.800 119.532 L 342.600 119.544 341.800 119.200 C 341.360 119.011,340.550 118.862,340.000 118.868 L 339.000 118.880 340.000 119.200 M248.309 124.725 C 247.319 125.783,246.299 127.088,246.043 127.625 L 245.577 128.600 246.287 127.600 C 246.678 127.050,247.788 125.745,248.754 124.700 C 249.719 123.655,250.419 122.800,250.309 122.800 C 250.199 122.800,249.299 123.666,248.309 124.725 M350.400 124.200 C 351.146 124.970,351.847 125.600,351.957 125.600 C 352.067 125.600,351.546 124.970,350.800 124.200 C 350.054 123.430,349.353 122.800,349.243 122.800 C 349.133 122.800,349.654 123.430,350.400 124.200 M114.093 125.200 C 114.093 125.970,114.175 126.285,114.276 125.900 C 114.376 125.515,114.376 124.885,114.276 124.500 C 114.175 124.115,114.093 124.430,114.093 125.200 M182.068 126.600 C 182.062 127.040,182.211 127.760,182.400 128.200 C 182.838 129.219,182.838 128.168,182.400 126.800 C 182.143 125.996,182.077 125.957,182.068 126.600 M169.656 129.200 C 169.656 129.530,169.811 130.160,170.000 130.600 C 170.217 131.104,170.344 131.178,170.344 130.800 C 170.344 130.470,170.189 129.840,170.000 129.400 C 169.783 128.896,169.656 128.822,169.656 129.200 M303.000 129.200 C 301.981 129.638,303.032 129.638,304.400 129.200 C 305.204 128.943,305.243 128.877,304.600 128.868 C 304.160 128.862,303.440 129.011,303.000 129.200 M231.449 129.815 C 231.312 130.173,231.215 130.766,231.234 131.133 C 231.253 131.500,231.427 131.269,231.621 130.620 C 231.998 129.358,231.865 128.733,231.449 129.815 M299.400 130.019 C 298.842 130.271,299.085 130.307,300.200 130.138 C 301.080 130.004,301.875 129.828,301.967 129.747 C 302.310 129.444,300.168 129.671,299.400 130.019 M296.305 130.683 C 296.802 130.779,297.522 130.775,297.905 130.675 C 298.287 130.575,297.880 130.496,297.000 130.501 C 296.120 130.505,295.807 130.587,296.305 130.683 M283.300 131.494 C 284.345 131.576,286.055 131.576,287.100 131.494 C 288.145 131.412,287.290 131.344,285.200 131.344 C 283.110 131.344,282.255 131.412,283.300 131.494 M243.701 134.200 C 243.705 135.080,243.787 135.393,243.883 134.895 C 243.979 134.398,243.975 133.678,243.875 133.295 C 243.775 132.913,243.696 133.320,243.701 134.200 M184.419 133.689 C 184.408 133.848,184.797 134.795,185.281 135.793 L 186.163 137.607 208.581 137.503 L 231.000 137.400 231.037 135.497 L 231.074 133.595 230.915 135.397 L 230.756 137.200 208.586 137.200 L 186.415 137.200 185.426 135.300 C 184.882 134.255,184.429 133.530,184.419 133.689 M356.054 135.899 L 356.000 137.197 299.700 137.300 L 243.400 137.403 299.713 137.501 C 360.709 137.608,356.709 137.748,356.286 135.529 C 356.151 134.821,356.096 134.909,356.054 135.899 M144.600 137.200 L 117.000 137.408 144.476 137.504 C 162.467 137.567,172.038 137.462,172.200 137.200 C 172.336 136.980,172.392 136.843,172.324 136.896 C 172.256 136.949,159.780 137.085,144.600 137.200 M374.960 156.200 C 374.961 159.500,375.022 160.797,375.098 159.082 C 375.173 157.367,375.172 154.667,375.097 153.082 C 375.021 151.497,374.959 152.900,374.960 156.200 M114.091 175.135 C 113.578 175.461,113.577 175.453,115.645 189.600 C 115.854 191.030,116.187 193.280,116.386 194.600 C 116.585 195.920,116.945 198.350,117.187 200.000 C 117.429 201.650,117.789 204.080,117.987 205.400 C 118.185 206.720,118.526 209.060,118.744 210.600 C 118.962 212.140,119.371 214.840,119.654 216.600 C 119.937 218.360,120.175 220.784,120.184 221.987 L 120.200 224.173 118.400 224.472 C 114.274 225.156,114.043 225.234,113.789 226.033 C 113.649 226.476,113.712 227.055,113.929 227.319 C 114.146 227.584,114.431 228.925,114.562 230.300 C 114.693 231.675,114.905 233.925,115.034 235.300 C 115.162 236.675,115.432 237.971,115.634 238.180 C 115.835 238.389,116.000 239.604,116.000 240.880 C 116.000 242.160,116.179 243.200,116.400 243.200 C 116.629 243.200,116.800 244.400,116.800 246.000 C 116.800 247.600,116.971 248.800,117.200 248.800 C 117.422 248.800,117.600 249.867,117.600 251.200 C 117.600 252.520,117.761 253.600,117.957 253.600 C 118.543 253.600,118.800 252.477,118.800 249.914 C 118.800 230.432,145.767 224.291,154.272 241.836 C 155.572 244.517,155.769 244.723,157.882 245.599 C 176.083 253.143,169.679 281.200,149.756 281.200 L 146.444 281.200 143.722 284.019 C 142.225 285.569,140.948 286.985,140.884 287.166 C 140.821 287.347,143.161 287.607,146.084 287.745 C 169.285 288.836,196.717 301.302,210.257 316.905 L 211.910 318.811 225.228 318.705 L 238.546 318.600 239.710 316.313 C 242.572 310.692,248.682 306.844,255.309 306.489 C 271.162 305.641,280.643 323.543,271.144 336.390 L 270.308 337.522 271.560 339.341 C 277.804 348.417,274.555 361.908,264.998 366.583 C 255.478 371.241,243.899 367.554,239.606 358.497 L 238.611 356.400 225.280 356.400 L 211.950 356.400 208.690 359.844 C 204.535 364.233,193.676 372.800,192.267 372.800 C 192.177 372.800,190.505 373.676,188.551 374.747 C 185.408 376.470,177.807 379.961,175.900 380.556 C 173.168 381.410,176.182 381.603,190.700 381.505 L 206.200 381.400 206.317 378.301 L 206.434 375.203 262.917 375.101 L 319.400 375.000 319.867 372.800 C 320.123 371.590,320.537 369.070,320.785 367.200 C 321.034 365.330,321.403 362.720,321.605 361.400 C 321.807 360.080,322.171 357.650,322.414 356.000 C 322.657 354.350,323.022 351.920,323.225 350.600 C 323.429 349.280,324.405 342.620,325.394 335.800 C 327.428 321.774,327.536 321.039,328.004 318.000 C 328.633 313.915,329.233 309.815,329.614 307.000 C 329.823 305.460,330.177 303.030,330.400 301.600 C 330.623 300.170,330.983 297.740,331.200 296.200 C 331.417 294.660,331.777 292.230,332.000 290.800 C 332.223 289.370,332.597 286.850,332.830 285.200 C 333.063 283.550,333.427 281.030,333.639 279.600 C 333.851 278.170,334.185 275.920,334.380 274.600 C 334.575 273.280,335.124 269.590,335.600 266.400 C 336.076 263.210,336.630 259.475,336.832 258.100 C 337.035 256.725,337.368 254.475,337.573 253.100 C 337.778 251.725,338.136 249.250,338.369 247.600 C 338.602 245.950,339.141 242.260,339.568 239.400 C 339.994 236.540,340.711 231.680,341.161 228.600 C 341.612 225.520,342.601 218.770,343.361 213.600 C 344.120 208.430,345.022 202.220,345.364 199.800 C 345.950 195.658,346.272 193.509,347.208 187.502 C 347.422 186.126,347.887 182.930,348.242 180.400 C 348.596 177.870,348.954 175.685,349.038 175.545 C 349.505 174.768,115.314 174.359,114.091 175.135 M136.705 243.883 C 137.202 243.979,137.922 243.975,138.305 243.875 C 138.687 243.775,138.280 243.696,137.400 243.701 C 136.520 243.705,136.207 243.787,136.705 243.883 M132.801 245.798 C 132.286 246.348,131.939 246.864,132.032 246.946 C 132.124 247.028,132.619 246.578,133.130 245.947 C 134.276 244.535,134.074 244.444,132.801 245.798 M144.400 253.159 C 144.400 253.531,146.754 255.799,146.903 255.571 C 146.964 255.477,146.426 254.830,145.707 254.134 C 144.988 253.438,144.400 252.999,144.400 253.159 M155.896 261.846 C 156.012 262.921,156.172 263.875,156.253 263.967 C 156.572 264.329,156.365 260.965,156.037 260.446 C 155.822 260.107,155.768 260.651,155.896 261.846 M154.229 266.762 L 153.058 268.200 154.409 266.913 C 155.151 266.205,155.678 265.558,155.579 265.475 C 155.481 265.392,154.873 265.971,154.229 266.762 M143.900 267.882 C 144.395 267.978,145.205 267.978,145.700 267.882 C 146.195 267.787,145.790 267.709,144.800 267.709 C 143.810 267.709,143.405 267.787,143.900 267.882 M129.792 280.100 L 126.200 283.800 129.900 280.208 C 133.336 276.872,133.782 276.400,133.492 276.400 C 133.432 276.400,131.767 278.065,129.792 280.100 M89.905 288.283 C 90.402 288.379,91.122 288.375,91.505 288.275 C 91.887 288.175,91.480 288.096,90.600 288.101 C 89.720 288.105,89.407 288.187,89.905 288.283 M82.800 288.800 L 81.800 289.120 82.800 289.113 C 83.350 289.109,84.340 288.968,85.000 288.800 L 86.200 288.495 85.000 288.487 C 84.340 288.483,83.350 288.624,82.800 288.800 M96.000 288.800 C 96.550 288.976,97.360 289.120,97.800 289.120 C 98.433 289.120,98.392 289.054,97.600 288.800 C 97.050 288.624,96.240 288.480,95.800 288.480 C 95.167 288.480,95.208 288.546,96.000 288.800 M78.400 289.600 C 77.596 289.857,77.557 289.923,78.200 289.932 C 78.640 289.938,79.360 289.789,79.800 289.600 C 80.819 289.162,79.768 289.162,78.400 289.600 M75.000 290.400 C 74.496 290.617,74.422 290.744,74.800 290.744 C 75.130 290.744,75.760 290.589,76.200 290.400 C 76.704 290.183,76.778 290.056,76.400 290.056 C 76.070 290.056,75.440 290.211,75.000 290.400 M104.000 291.451 C 105.805 292.737,108.220 295.412,108.935 296.920 C 109.655 298.436,110.177 298.956,109.720 297.700 C 108.948 295.578,106.391 292.670,104.200 291.422 C 103.028 290.755,103.023 290.755,104.000 291.451 M66.600 293.014 C 65.600 293.496,65.566 293.551,66.400 293.348 C 67.533 293.071,68.807 292.421,68.200 292.430 C 67.980 292.433,67.260 292.696,66.600 293.014 M138.400 300.402 C 137.800 300.595,138.440 300.637,140.000 300.506 C 141.430 300.386,142.675 300.223,142.767 300.144 C 143.089 299.865,139.388 300.084,138.400 300.402 M144.833 300.144 C 144.925 300.224,146.350 300.385,148.000 300.503 C 149.758 300.628,150.503 300.588,149.800 300.406 C 148.587 300.091,144.525 299.878,144.833 300.144 M48.400 301.633 L 47.400 302.448 48.700 301.814 C 49.415 301.465,50.000 301.094,50.000 300.990 C 50.000 300.592,49.363 300.848,48.400 301.633 M153.400 301.200 C 153.840 301.389,154.560 301.538,155.000 301.532 C 155.643 301.523,155.604 301.457,154.800 301.200 C 153.432 300.762,152.381 300.762,153.400 301.200 M107.601 302.598 C 107.086 303.148,106.739 303.664,106.832 303.746 C 106.924 303.828,107.419 303.378,107.930 302.747 C 109.076 301.335,108.874 301.244,107.601 302.598 M157.400 302.000 C 157.840 302.189,158.470 302.344,158.800 302.344 C 159.178 302.344,159.104 302.217,158.600 302.000 C 158.160 301.811,157.530 301.656,157.200 301.656 C 156.822 301.656,156.896 301.783,157.400 302.000 M160.400 302.800 C 160.730 303.013,161.270 303.188,161.600 303.188 C 162.133 303.188,162.133 303.145,161.600 302.800 C 161.270 302.587,160.730 302.412,160.400 302.412 C 159.867 302.412,159.867 302.455,160.400 302.800 M105.359 305.300 C 103.607 307.321,103.087 308.000,103.290 308.000 C 103.407 308.000,104.167 307.190,104.979 306.200 C 106.481 304.366,106.779 303.663,105.359 305.300 M124.000 305.620 L 123.000 306.422 124.100 305.947 C 124.705 305.685,125.200 305.320,125.200 305.136 C 125.200 304.679,125.145 304.702,124.000 305.620 M40.800 306.849 C 39.406 308.071,39.405 308.072,40.688 307.219 C 41.396 306.748,42.082 306.191,42.212 305.981 C 42.597 305.357,42.277 305.554,40.800 306.849 M121.185 307.632 L 119.800 308.863 121.088 308.013 C 122.230 307.259,123.093 306.400,122.708 306.400 C 122.632 306.400,121.947 306.954,121.185 307.632 M35.988 311.100 L 33.400 313.800 36.190 311.200 C 37.724 309.770,39.059 308.555,39.156 308.500 C 39.254 308.445,39.163 308.400,38.955 308.400 C 38.747 308.400,37.412 309.615,35.988 311.100 M113.800 314.906 C 112.464 316.730,111.664 318.039,112.275 317.400 C 113.212 316.420,115.282 313.549,115.148 313.415 C 115.067 313.334,114.460 314.004,113.800 314.906 M186.400 313.620 C 187.787 314.561,188.578 314.835,187.600 314.036 C 187.050 313.586,186.420 313.217,186.200 313.215 C 185.980 313.213,186.070 313.396,186.400 313.620 M32.744 314.700 C 31.593 316.089,31.106 316.800,31.304 316.800 C 31.414 316.800,31.986 316.170,32.573 315.400 C 33.663 313.971,33.795 313.432,32.744 314.700 M188.800 314.954 C 188.800 315.055,189.982 315.965,191.427 316.975 C 192.872 317.985,193.941 318.628,193.802 318.404 C 193.508 317.928,188.800 314.681,188.800 314.954 M194.422 319.100 C 194.434 319.265,195.019 319.838,195.722 320.374 L 197.000 321.349 195.825 320.074 C 194.603 318.749,194.385 318.597,194.422 319.100 M198.400 322.600 C 199.146 323.370,199.847 324.000,199.957 324.000 C 200.067 324.000,199.546 323.370,198.800 322.600 C 198.054 321.830,197.353 321.200,197.243 321.200 C 197.133 321.200,197.654 321.830,198.400 322.600 M27.665 323.417 C 27.409 323.978,27.207 324.654,27.216 324.919 C 27.224 325.183,27.497 324.788,27.822 324.039 C 28.505 322.465,28.361 321.890,27.665 323.417 M94.649 326.615 C 94.512 326.973,94.418 327.656,94.441 328.133 C 94.467 328.681,94.603 328.486,94.810 327.603 C 95.160 326.116,95.065 325.533,94.649 326.615 M202.574 327.800 C 203.967 329.852,204.252 330.095,203.477 328.571 C 203.134 327.895,202.549 327.090,202.178 326.782 C 201.807 326.474,201.985 326.932,202.574 327.800 M107.646 327.267 C 107.621 327.634,107.496 328.264,107.370 328.667 C 107.152 329.362,107.163 329.363,107.597 328.687 C 107.848 328.296,107.973 327.666,107.873 327.287 C 107.711 326.668,107.688 326.666,107.646 327.267 M25.455 331.455 C 25.313 332.486,25.274 333.408,25.369 333.502 C 25.463 333.596,25.665 332.839,25.818 331.818 C 25.971 330.798,26.010 329.876,25.904 329.771 C 25.798 329.665,25.596 330.423,25.455 331.455 M93.850 331.250 C 93.519 332.907,93.581 343.212,93.928 344.083 C 94.078 344.459,94.200 341.444,94.200 337.383 C 94.200 333.322,94.178 330.000,94.150 330.000 C 94.123 330.000,93.988 330.563,93.850 331.250 M106.655 331.855 C 106.513 332.886,106.474 333.808,106.569 333.902 C 106.663 333.996,106.865 333.239,107.018 332.218 C 107.171 331.198,107.210 330.276,107.104 330.171 C 106.998 330.065,106.796 330.823,106.655 331.855 M204.713 331.819 C 205.084 332.820,205.439 333.482,205.503 333.291 C 205.631 332.906,204.493 330.000,204.214 330.000 C 204.117 330.000,204.342 330.819,204.713 331.819 M205.901 336.600 C 206.014 338.140,206.172 339.475,206.253 339.567 C 206.547 339.900,206.335 335.378,206.020 334.600 C 205.835 334.142,205.784 334.998,205.901 336.600 M24.909 337.600 C 24.909 338.590,24.987 338.995,25.082 338.500 C 25.178 338.005,25.178 337.195,25.082 336.700 C 24.987 336.205,24.909 336.610,24.909 337.600 M218.250 341.650 C 218.109 342.353,218.069 343.002,218.159 343.092 C 218.250 343.183,218.448 342.691,218.600 342.000 C 218.752 341.309,218.793 340.659,218.691 340.558 C 218.589 340.456,218.391 340.947,218.250 341.650 M251.887 342.009 C 252.595 342.751,253.242 343.278,253.325 343.179 C 253.408 343.081,252.829 342.473,252.038 341.829 L 250.600 340.658 251.887 342.009 M106.672 343.000 C 106.799 344.100,106.969 345.075,107.051 345.167 C 107.332 345.482,107.120 342.999,106.780 342.000 C 106.551 341.326,106.516 341.651,106.672 343.000 M25.693 344.400 C 25.693 345.170,25.775 345.485,25.876 345.100 C 25.976 344.715,25.976 344.085,25.876 343.700 C 25.775 343.315,25.693 343.630,25.693 344.400 M203.878 345.005 C 203.512 345.772,203.295 346.400,203.396 346.400 C 203.670 346.400,204.884 343.951,204.701 343.768 C 204.614 343.681,204.244 344.238,203.878 345.005 M222.600 343.880 C 231.363 344.157,246.285 344.174,245.863 343.906 C 245.608 343.744,239.460 343.647,232.200 343.689 C 224.940 343.731,220.620 343.817,222.600 343.880 M255.700 343.876 C 256.085 343.976,256.715 343.976,257.100 343.876 C 257.485 343.775,257.170 343.693,256.400 343.693 C 255.630 343.693,255.315 343.775,255.700 343.876 M26.244 347.000 C 26.573 348.471,26.802 348.790,26.794 347.767 C 26.791 347.345,26.605 346.730,26.382 346.400 C 26.085 345.962,26.048 346.124,26.244 347.000 M94.468 347.000 C 94.462 347.440,94.611 348.160,94.800 348.600 C 95.238 349.619,95.238 348.568,94.800 347.200 C 94.543 346.396,94.477 346.357,94.468 347.000 M198.200 352.182 C 196.660 353.756,194.590 355.728,193.600 356.564 C 192.249 357.705,192.149 357.852,193.200 357.153 C 194.849 356.057,201.984 349.199,201.400 349.271 C 201.180 349.298,199.740 350.608,198.200 352.182 M28.028 352.200 C 28.028 352.420,28.286 353.050,28.600 353.600 C 28.914 354.150,29.172 354.420,29.172 354.200 C 29.172 353.980,28.914 353.350,28.600 352.800 C 28.286 352.250,28.028 351.980,28.028 352.200 M96.106 353.612 C 96.136 354.168,95.571 355.518,94.852 356.612 C 94.121 357.721,93.958 358.117,94.482 357.506 C 96.107 355.611,96.728 354.266,96.377 353.400 C 96.091 352.694,96.059 352.719,96.106 353.612 M251.887 354.409 C 252.595 355.151,253.242 355.678,253.325 355.579 C 253.408 355.481,252.829 354.873,252.038 354.229 L 250.600 353.058 251.887 354.409 M110.000 353.798 C 110.000 354.236,111.976 357.600,112.234 357.600 C 112.344 357.600,111.944 356.745,111.346 355.700 C 110.056 353.448,110.000 353.369,110.000 353.798 M256.400 356.000 L 254.600 356.280 256.200 356.334 C 257.080 356.363,258.070 356.213,258.400 356.000 C 258.730 355.787,258.820 355.637,258.600 355.666 C 258.380 355.696,257.390 355.846,256.400 356.000 M113.904 360.200 C 114.977 361.780,119.479 366.269,121.000 367.275 L 122.200 368.069 121.200 367.197 C 118.910 365.200,116.818 363.153,115.009 361.139 C 113.953 359.963,113.455 359.540,113.904 360.200 M186.900 361.026 C 185.965 361.587,185.200 362.140,185.200 362.255 C 185.200 362.471,187.899 360.938,188.580 360.336 C 189.267 359.728,188.627 359.991,186.900 361.026 M87.800 364.701 C 85.820 366.606,84.920 367.602,85.800 366.914 C 87.381 365.678,91.947 361.183,91.586 361.218 C 91.484 361.228,89.780 362.795,87.800 364.701 M183.500 363.029 C 182.005 363.840,182.096 364.178,183.600 363.400 C 184.260 363.059,184.800 362.694,184.800 362.590 C 184.800 362.332,184.757 362.347,183.500 363.029 M80.600 370.017 C 79.500 370.664,78.764 371.195,78.965 371.197 C 79.406 371.201,82.800 369.242,82.800 368.983 C 82.800 368.722,82.804 368.720,80.600 370.017 M124.800 369.798 C 124.800 370.067,128.849 372.084,129.029 371.905 C 129.111 371.823,128.193 371.273,126.989 370.682 C 125.785 370.092,124.800 369.694,124.800 369.798 M46.400 371.400 C 46.950 371.714,47.580 371.972,47.800 371.972 C 48.020 371.972,47.750 371.714,47.200 371.400 C 46.650 371.086,46.020 370.828,45.800 370.828 C 45.580 370.828,45.850 371.086,46.400 371.400 M162.800 371.600 C 161.976 371.864,161.941 371.926,162.600 371.954 C 163.040 371.973,163.670 371.813,164.000 371.600 C 164.701 371.147,164.214 371.147,162.800 371.600 M50.800 373.182 C 51.130 373.405,51.745 373.591,52.167 373.594 C 53.190 373.602,52.871 373.373,51.400 373.044 C 50.524 372.848,50.362 372.885,50.800 373.182 M132.000 373.182 C 132.330 373.405,132.945 373.591,133.367 373.594 C 134.390 373.602,134.071 373.373,132.600 373.044 C 131.724 372.848,131.562 372.885,132.000 373.182 M71.600 373.618 C 71.162 373.915,71.324 373.952,72.200 373.756 C 73.671 373.427,73.990 373.198,72.967 373.206 C 72.545 373.209,71.930 373.395,71.600 373.618 M68.900 374.276 C 69.285 374.376,69.915 374.376,70.300 374.276 C 70.685 374.175,70.370 374.093,69.600 374.093 C 68.830 374.093,68.515 374.175,68.900 374.276 M151.105 374.283 C 151.602 374.379,152.322 374.375,152.705 374.275 C 153.087 374.175,152.680 374.096,151.800 374.101 C 150.920 374.105,150.607 374.187,151.105 374.283 M61.500 375.082 C 61.995 375.178,62.805 375.178,63.300 375.082 C 63.795 374.987,63.390 374.909,62.400 374.909 C 61.410 374.909,61.005 374.987,61.500 375.082 M143.105 375.083 C 143.602 375.179,144.322 375.175,144.705 375.075 C 145.087 374.975,144.680 374.896,143.800 374.901 C 142.920 374.905,142.607 374.987,143.105 375.083 " stroke="none" fill="#e64042" fill-rule="evenodd"></path><path id="path1" d="M280.589 47.300 L 277.800 50.200 280.700 47.411 C 283.394 44.820,283.783 44.400,283.489 44.400 C 283.428 44.400,282.123 45.705,280.589 47.300 M290.181 56.900 L 288.600 58.600 290.300 57.019 C 291.881 55.548,292.184 55.200,291.881 55.200 C 291.816 55.200,291.051 55.965,290.181 56.900 M79.429 60.762 L 78.258 62.200 79.609 60.913 C 80.351 60.205,80.878 59.558,80.779 59.475 C 80.681 59.392,80.073 59.971,79.429 60.762 M68.893 68.800 C 68.893 69.570,68.975 69.885,69.076 69.500 C 69.176 69.115,69.176 68.485,69.076 68.100 C 68.975 67.715,68.893 68.030,68.893 68.800 M241.200 70.026 C 237.564 70.575,233.874 71.255,232.600 71.611 C 231.940 71.795,230.590 72.162,229.600 72.426 C 226.814 73.170,223.074 74.397,222.305 74.819 C 221.923 75.029,221.426 75.200,221.201 75.200 C 218.986 75.200,202.260 84.282,197.155 88.258 C 182.503 99.667,177.471 118.874,185.053 134.454 L 186.390 137.200 208.543 137.200 L 230.697 137.200 230.972 133.900 C 231.699 125.195,236.694 116.695,243.884 111.927 C 245.378 110.936,251.010 107.914,256.400 105.211 C 261.790 102.508,266.404 100.136,266.653 99.938 C 268.203 98.712,268.181 86.709,266.620 81.538 C 263.878 72.455,254.184 68.064,241.200 70.026 M106.600 78.400 C 107.459 79.280,108.252 80.000,108.362 80.000 C 108.472 80.000,107.859 79.280,107.000 78.400 C 106.141 77.520,105.348 76.800,105.238 76.800 C 105.128 76.800,105.741 77.520,106.600 78.400 M293.400 101.143 C 252.551 121.623,251.334 122.266,248.995 124.600 C 245.881 127.709,244.308 130.898,243.818 135.100 L 243.572 137.200 299.786 137.200 L 356.000 137.200 356.000 136.073 C 356.000 132.665,353.521 127.451,350.453 124.407 C 346.111 120.098,341.787 118.800,331.769 118.800 L 325.337 118.800 323.369 120.090 C 322.286 120.800,321.205 121.567,320.967 121.795 C 320.561 122.183,311.943 126.532,310.200 127.228 C 304.130 129.652,298.772 130.733,290.176 131.269 C 280.280 131.885,281.200 132.527,281.200 125.013 L 281.200 118.800 283.931 118.800 C 307.701 118.800,325.721 107.060,334.145 86.086 C 335.032 83.880,335.948 79.924,335.545 80.043 C 335.465 80.066,316.500 89.561,293.400 101.143 M97.000 88.000 C 98.528 89.540,99.869 90.800,99.979 90.800 C 100.089 90.800,98.928 89.540,97.400 88.000 C 95.872 86.460,94.531 85.200,94.421 85.200 C 94.311 85.200,95.472 86.460,97.000 88.000 M109.200 90.600 C 108.228 91.590,107.523 92.400,107.633 92.400 C 107.743 92.400,108.628 91.590,109.600 90.600 C 110.572 89.610,111.277 88.800,111.167 88.800 C 111.057 88.800,110.172 89.610,109.200 90.600 M126.523 95.612 C 113.998 98.849,110.340 111.814,116.059 132.700 L 117.291 137.200 144.646 137.200 C 159.690 137.200,172.000 137.122,172.000 137.026 C 172.000 136.930,171.799 136.345,171.554 135.726 C 168.912 129.055,167.949 117.172,169.453 109.800 C 170.494 104.697,170.517 104.794,168.000 103.560 C 153.431 96.413,136.201 93.111,126.523 95.612 M128.181 262.100 L 126.600 263.800 128.300 262.219 C 129.881 260.748,130.184 260.400,129.881 260.400 C 129.816 260.400,129.051 261.165,128.181 262.100 M137.387 272.100 L 135.000 274.600 137.500 272.213 C 139.822 269.995,140.183 269.600,139.887 269.600 C 139.826 269.600,138.701 270.725,137.387 272.100 M111.781 278.500 L 110.200 280.200 111.900 278.619 C 113.481 277.148,113.784 276.800,113.481 276.800 C 113.416 276.800,112.651 277.565,111.781 278.500 M121.600 287.800 C 120.628 288.790,119.923 289.600,120.033 289.600 C 120.143 289.600,121.028 288.790,122.000 287.800 C 122.972 286.810,123.677 286.000,123.567 286.000 C 123.457 286.000,122.572 286.810,121.600 287.800 M84.000 288.870 C 82.790 289.070,80.810 289.434,79.600 289.677 C 77.646 290.070,76.446 290.363,71.800 291.585 C 70.201 292.005,65.745 293.550,64.000 294.289 C 63.230 294.615,62.240 295.030,61.800 295.210 C 41.729 303.459,29.233 315.259,26.441 328.600 C 26.211 329.700,25.838 331.445,25.611 332.477 C 24.364 338.171,25.889 347.390,29.174 354.011 C 31.620 358.941,35.829 364.093,39.800 367.017 C 40.680 367.665,41.490 368.286,41.600 368.398 C 41.916 368.718,43.587 369.632,46.400 371.024 C 60.555 378.029,77.317 375.111,88.836 363.636 C 93.898 358.592,96.431 354.848,95.979 353.075 C 95.656 351.809,94.714 347.763,93.982 344.494 C 93.464 342.181,93.498 333.212,94.037 330.224 C 96.061 318.990,100.722 309.717,108.080 302.281 C 110.257 300.081,110.359 299.567,109.100 297.140 C 105.539 290.276,95.491 286.965,84.000 288.870 M139.200 300.575 C 134.589 301.197,126.125 304.004,125.200 305.218 C 125.090 305.362,124.550 305.716,124.000 306.005 C 121.079 307.538,116.798 311.507,113.945 315.328 C 111.688 318.352,108.800 323.760,108.800 324.965 C 108.800 325.288,108.640 325.652,108.444 325.773 C 108.249 325.894,107.986 326.579,107.861 327.296 C 107.736 328.013,107.443 329.590,107.210 330.800 C 102.854 353.422,120.706 374.799,143.954 374.800 C 151.665 374.800,165.683 371.399,174.800 367.315 C 193.700 358.850,205.206 348.197,205.898 338.523 C 206.700 327.314,192.364 314.244,170.000 305.794 C 167.167 304.724,163.529 303.540,162.000 303.191 C 161.230 303.015,159.430 302.583,158.000 302.230 C 153.786 301.190,151.964 300.862,149.000 300.607 C 147.460 300.475,145.480 300.298,144.600 300.215 C 143.720 300.131,141.290 300.294,139.200 300.575 M225.300 331.499 C 228.985 331.565,235.015 331.565,238.700 331.499 C 242.385 331.433,239.370 331.379,232.000 331.379 C 224.630 331.379,221.615 331.433,225.300 331.499 " stroke="none" fill="#f0c033" fill-rule="evenodd"></path><path id="path2" d="M291.027 26.107 C 289.957 26.715,289.144 27.624,288.481 28.955 C 287.440 31.046,287.419 30.661,288.838 35.334 C 289.668 38.068,288.909 39.087,277.514 50.542 C 266.963 61.148,265.976 62.400,268.168 62.400 C 268.839 62.400,273.114 66.506,274.416 68.400 C 274.945 69.170,275.563 70.011,275.789 70.269 C 276.089 70.610,279.129 67.836,287.000 60.040 C 299.410 47.747,299.186 47.892,303.781 49.166 C 307.711 50.256,310.388 49.118,311.790 45.763 C 313.343 42.045,310.007 37.650,305.600 37.610 C 302.724 37.584,300.496 35.362,299.963 31.989 C 299.089 26.460,295.066 23.812,291.027 26.107 M84.959 50.948 C 83.239 51.729,82.025 53.594,81.613 56.089 C 80.862 60.633,78.758 62.787,75.051 62.807 C 72.107 62.822,69.200 65.800,69.200 68.800 C 69.200 73.083,73.249 75.676,77.582 74.168 C 81.881 72.671,81.972 72.730,94.270 84.994 C 100.282 90.989,105.200 95.773,105.200 95.625 C 105.200 94.483,110.328 89.388,114.375 86.508 C 114.472 86.439,109.676 81.482,103.719 75.491 C 91.527 63.231,91.457 63.122,92.968 58.782 C 94.828 53.439,89.960 48.677,84.959 50.948 M87.600 156.200 L 87.600 162.400 231.200 162.400 L 374.800 162.400 374.800 156.200 L 374.800 150.000 231.200 150.000 L 87.600 150.000 87.600 156.200 M134.748 244.880 C 131.843 246.500,131.129 249.092,132.390 253.436 C 133.416 256.973,133.087 257.442,121.164 269.412 L 110.395 280.224 111.697 280.990 C 113.619 282.119,117.120 285.529,118.590 287.703 L 119.877 289.606 130.638 278.877 C 142.827 266.725,143.229 266.453,147.048 267.755 C 150.724 269.007,153.362 268.232,155.014 265.413 C 157.452 261.253,154.400 256.400,149.346 256.400 C 146.435 256.400,143.600 253.539,143.600 250.601 C 143.600 245.766,138.764 242.641,134.748 244.880 M254.163 319.585 C 251.982 320.556,250.940 321.978,250.396 324.724 C 249.726 328.103,249.632 328.335,248.469 329.452 C 246.295 331.540,245.831 331.600,231.713 331.600 L 218.600 331.600 218.600 337.600 L 218.600 343.600 232.200 343.601 C 248.877 343.603,249.233 343.730,250.348 350.064 C 251.186 354.821,254.567 357.062,258.451 355.435 C 264.582 352.867,262.658 344.000,255.970 344.000 C 254.566 344.000,252.867 343.263,251.751 342.170 C 247.998 338.494,250.491 331.207,255.504 331.201 C 260.205 331.196,263.672 326.290,261.593 322.587 C 259.799 319.394,257.070 318.291,254.163 319.585 " stroke="none" fill="#c6d6e2" fill-rule="evenodd"></path><path id="path3" d="M287.800 12.493 C 286.491 12.937,284.366 13.934,282.813 14.830 C 281.263 15.725,277.609 19.625,277.349 20.662 C 277.219 21.178,276.953 21.600,276.757 21.600 C 276.560 21.600,276.400 21.960,276.400 22.400 C 276.400 22.840,276.220 23.200,276.000 23.200 C 275.780 23.200,275.600 23.740,275.600 24.400 C 275.600 25.060,275.420 25.600,275.200 25.600 C 274.960 25.600,274.800 27.205,274.800 29.614 L 274.800 33.628 263.220 45.214 C 252.846 55.594,250.400 57.728,250.400 56.400 C 250.400 56.165,249.000 56.000,247.000 56.000 C 245.000 56.000,243.600 56.165,243.600 56.400 C 243.600 56.638,242.075 56.800,239.824 56.800 C 237.737 56.800,235.937 56.979,235.800 57.200 C 235.664 57.420,234.663 57.600,233.576 57.600 C 232.489 57.600,231.600 57.780,231.600 58.000 C 231.600 58.220,230.880 58.400,230.000 58.400 C 229.120 58.400,228.400 58.580,228.400 58.800 C 228.400 59.020,227.770 59.200,227.000 59.200 C 226.230 59.200,225.600 59.362,225.600 59.561 C 225.600 59.759,224.520 60.047,223.200 60.200 C 221.880 60.353,220.800 60.641,220.800 60.839 C 220.800 61.038,220.361 61.200,219.824 61.200 C 219.287 61.200,218.736 61.380,218.600 61.600 C 218.464 61.820,218.001 62.000,217.571 62.000 C 217.141 62.000,216.477 62.159,216.095 62.353 C 215.713 62.548,214.950 62.890,214.400 63.114 C 213.850 63.338,212.196 64.079,210.725 64.761 C 209.254 65.442,207.769 66.000,207.425 66.000 C 207.081 66.000,206.800 66.180,206.800 66.400 C 206.800 66.620,206.455 66.800,206.033 66.800 C 205.612 66.800,205.207 66.935,205.133 67.100 C 205.013 67.370,202.911 68.578,200.503 69.760 C 200.010 70.002,199.605 70.335,199.603 70.500 C 199.601 70.665,199.240 70.800,198.800 70.800 C 198.360 70.800,198.000 70.980,198.000 71.200 C 198.000 71.420,197.730 71.600,197.400 71.600 C 197.070 71.600,196.800 71.780,196.800 72.000 C 196.800 72.220,196.530 72.400,196.200 72.400 C 195.870 72.400,195.600 72.580,195.600 72.800 C 195.600 73.020,195.370 73.200,195.088 73.200 C 194.807 73.200,194.317 73.560,194.000 74.000 C 193.683 74.440,193.175 74.800,192.872 74.800 C 192.569 74.800,191.817 75.340,191.200 76.000 C 190.583 76.660,189.799 77.200,189.458 77.200 C 189.116 77.200,188.422 77.605,187.915 78.100 C 187.409 78.595,186.307 79.514,185.468 80.143 C 183.521 81.600,181.595 83.527,180.143 85.470 C 179.514 86.312,178.595 87.448,178.100 87.996 C 177.605 88.544,177.200 89.227,177.200 89.514 C 177.200 90.136,175.414 92.000,174.818 92.000 C 174.588 92.000,174.400 91.820,174.400 91.600 C 174.400 91.380,174.040 91.200,173.600 91.200 C 173.160 91.200,172.800 91.020,172.800 90.800 C 172.800 90.580,172.350 90.400,171.800 90.400 C 171.250 90.400,170.800 90.220,170.800 90.000 C 170.800 89.780,170.440 89.600,170.000 89.600 C 169.560 89.600,169.200 89.420,169.200 89.200 C 169.200 88.980,168.851 88.800,168.424 88.800 C 167.997 88.800,167.536 88.620,167.400 88.400 C 167.264 88.180,166.713 88.000,166.176 88.000 C 165.639 88.000,165.200 87.820,165.200 87.600 C 165.200 87.380,164.660 87.200,164.000 87.200 C 163.340 87.200,162.800 87.064,162.800 86.897 C 162.800 86.566,159.976 85.600,159.006 85.600 C 158.673 85.600,158.400 85.420,158.400 85.200 C 158.400 84.980,157.871 84.800,157.224 84.800 C 156.577 84.800,155.936 84.620,155.800 84.400 C 155.664 84.180,154.933 84.000,154.176 84.000 C 153.419 84.000,152.800 83.820,152.800 83.600 C 152.800 83.380,152.091 83.200,151.224 83.200 C 150.357 83.200,149.536 83.020,149.400 82.800 C 149.264 82.580,148.274 82.400,147.200 82.400 C 146.126 82.400,145.136 82.220,145.000 82.000 C 144.864 81.780,143.154 81.600,141.200 81.600 C 139.246 81.600,137.536 81.420,137.400 81.200 C 137.078 80.679,132.122 80.679,131.800 81.200 C 130.764 82.877,128.689 81.242,118.569 70.771 C 116.352 68.477,112.797 64.927,110.669 62.883 L 106.800 59.165 106.800 55.006 C 106.800 52.665,106.625 50.739,106.400 50.600 C 106.180 50.464,106.000 50.020,106.000 49.614 C 106.000 47.573,99.451 39.600,97.774 39.600 C 97.458 39.600,97.200 39.420,97.200 39.200 C 97.200 38.980,96.840 38.800,96.400 38.800 C 95.960 38.800,95.600 38.620,95.600 38.400 C 95.600 38.180,95.060 38.000,94.400 38.000 C 93.740 38.000,93.200 37.820,93.200 37.600 C 93.200 37.352,91.000 37.200,87.400 37.200 C 83.800 37.200,81.600 37.352,81.600 37.600 C 81.600 37.820,81.257 38.000,80.838 38.000 C 78.912 38.000,70.800 44.434,70.800 45.961 C 70.800 46.203,70.620 46.400,70.400 46.400 C 70.180 46.400,70.000 46.760,70.000 47.200 C 70.000 47.640,69.820 48.000,69.600 48.000 C 69.380 48.000,69.200 48.540,69.200 49.200 C 69.200 50.267,69.067 50.400,68.000 50.400 C 67.340 50.400,66.800 50.580,66.800 50.800 C 66.800 51.020,66.440 51.200,66.000 51.200 C 65.560 51.200,65.200 51.380,65.200 51.600 C 65.200 51.820,64.930 52.000,64.600 52.000 C 64.270 52.000,64.000 52.180,64.000 52.400 C 64.000 52.620,63.806 52.800,63.569 52.800 C 62.794 52.800,58.415 57.804,58.405 58.700 C 58.402 58.975,58.220 59.200,58.000 59.200 C 57.780 59.200,57.600 59.560,57.600 60.000 C 57.600 60.440,57.420 60.800,57.200 60.800 C 56.980 60.800,56.800 61.239,56.800 61.776 C 56.800 62.313,56.620 62.864,56.400 63.000 C 55.862 63.332,55.862 74.400,56.400 74.400 C 56.620 74.400,56.800 74.940,56.800 75.600 C 56.800 76.260,56.980 76.800,57.200 76.800 C 57.420 76.800,57.600 77.160,57.600 77.600 C 57.600 78.040,57.780 78.400,58.000 78.400 C 58.220 78.400,58.402 78.625,58.405 78.900 C 58.415 79.831,62.294 84.179,63.970 85.138 C 67.028 86.887,67.698 87.200,68.389 87.200 C 68.809 87.200,69.264 87.380,69.400 87.600 C 69.538 87.824,71.418 88.000,73.666 88.000 L 77.684 88.000 89.042 99.369 C 99.584 109.921,101.669 112.400,100.000 112.400 C 99.475 112.400,99.475 117.875,100.000 118.200 C 100.221 118.337,100.400 120.137,100.400 122.224 C 100.400 124.475,100.562 126.000,100.800 126.000 C 101.022 126.000,101.200 127.067,101.200 128.400 C 101.200 129.733,101.378 130.800,101.600 130.800 C 101.820 130.800,102.000 131.520,102.000 132.400 C 102.000 133.280,102.180 134.000,102.400 134.000 C 102.620 134.000,102.800 134.720,102.800 135.600 L 102.800 137.200 90.595 137.200 C 78.307 137.200,77.652 137.267,76.115 138.671 C 75.832 138.931,75.600 139.426,75.600 139.771 C 75.600 140.117,75.420 140.400,75.200 140.400 C 74.940 140.400,74.800 146.000,74.800 156.400 C 74.800 166.800,74.940 172.400,75.200 172.400 C 75.420 172.400,75.600 172.604,75.600 172.853 C 75.600 173.103,76.095 173.733,76.700 174.253 L 77.800 175.199 89.100 175.200 L 100.400 175.200 100.400 177.600 C 100.400 178.933,100.578 180.000,100.800 180.000 C 101.029 180.000,101.200 181.200,101.200 182.800 C 101.200 184.400,101.371 185.600,101.600 185.600 C 101.826 185.600,102.000 186.733,102.000 188.200 C 102.000 189.667,102.174 190.800,102.400 190.800 C 102.625 190.800,102.800 191.925,102.800 193.376 C 102.800 194.793,102.980 196.064,103.200 196.200 C 103.420 196.336,103.600 197.506,103.600 198.800 C 103.600 200.094,103.780 201.264,104.000 201.400 C 104.220 201.536,104.400 202.706,104.400 204.000 C 104.400 205.294,104.580 206.464,104.800 206.600 C 105.020 206.736,105.200 208.007,105.200 209.424 C 105.200 210.875,105.375 212.000,105.600 212.000 C 105.829 212.000,106.000 213.200,106.000 214.800 C 106.000 216.400,106.171 217.600,106.400 217.600 C 106.626 217.600,106.800 218.733,106.800 220.200 C 106.800 221.667,106.974 222.800,107.200 222.800 C 107.420 222.800,107.600 223.700,107.600 224.800 C 107.600 226.667,107.667 226.800,108.600 226.800 C 109.150 226.800,109.600 226.620,109.600 226.400 C 109.600 226.180,110.575 226.000,111.767 226.000 C 112.958 226.000,113.995 225.815,114.070 225.589 C 114.145 225.364,115.555 224.952,117.204 224.675 L 120.200 224.171 120.184 221.986 C 120.175 220.784,119.937 218.360,119.654 216.600 C 119.371 214.840,118.962 212.140,118.744 210.600 C 118.526 209.060,118.185 206.720,117.987 205.400 C 117.789 204.080,117.429 201.650,117.187 200.000 C 116.945 198.350,116.585 195.920,116.386 194.600 C 116.187 193.280,115.854 191.030,115.645 189.600 C 113.577 175.453,113.578 175.461,114.091 175.135 C 115.314 174.359,349.505 174.768,349.038 175.545 C 348.954 175.685,348.596 177.870,348.242 180.400 C 347.887 182.930,347.422 186.126,347.208 187.502 C 346.272 193.509,345.950 195.658,345.364 199.800 C 345.022 202.220,344.120 208.430,343.361 213.600 C 342.601 218.770,341.612 225.520,341.161 228.600 C 340.711 231.680,339.994 236.540,339.568 239.400 C 339.141 242.260,338.602 245.950,338.369 247.600 C 338.136 249.250,337.784 251.680,337.585 253.000 C 337.387 254.320,337.054 256.570,336.845 258.000 C 336.636 259.430,336.076 263.210,335.600 266.400 C 335.124 269.590,334.570 273.325,334.368 274.700 C 334.165 276.075,333.832 278.325,333.627 279.700 C 333.422 281.075,333.063 283.550,332.830 285.200 C 332.597 286.850,332.223 289.370,332.000 290.800 C 331.777 292.230,331.417 294.660,331.200 296.200 C 330.983 297.740,330.623 300.170,330.400 301.600 C 330.177 303.030,329.823 305.460,329.614 307.000 C 329.233 309.815,328.633 313.915,328.004 318.000 C 327.545 320.979,327.453 321.607,325.390 335.800 C 324.399 342.620,323.398 349.460,323.166 351.000 C 322.934 352.540,322.577 354.925,322.372 356.300 C 322.167 357.675,321.829 359.925,321.619 361.300 C 321.409 362.675,321.034 365.330,320.785 367.200 C 320.537 369.070,320.123 371.590,319.867 372.800 L 319.400 375.000 262.961 375.101 L 206.522 375.203 206.263 379.701 C 206.120 382.176,206.003 385.055,206.002 386.100 L 206.000 388.000 267.200 388.000 C 300.860 388.000,328.400 387.863,328.400 387.695 C 328.400 387.527,328.805 387.212,329.300 386.995 C 329.795 386.778,330.378 386.195,330.595 385.700 C 330.812 385.205,331.127 384.800,331.295 384.800 C 331.463 384.800,331.600 384.271,331.600 383.624 C 331.600 382.977,331.780 382.336,332.000 382.200 C 332.220 382.064,332.400 380.793,332.400 379.376 C 332.400 377.925,332.575 376.800,332.800 376.800 C 333.025 376.800,333.200 375.675,333.200 374.224 C 333.200 372.807,333.380 371.536,333.600 371.400 C 333.820 371.264,334.000 369.993,334.000 368.576 C 334.000 367.125,334.175 366.000,334.400 366.000 C 334.625 366.000,334.800 364.875,334.800 363.424 C 334.800 362.007,334.980 360.736,335.200 360.600 C 335.420 360.464,335.600 359.294,335.600 358.000 C 335.600 356.706,335.780 355.536,336.000 355.400 C 336.220 355.264,336.400 354.094,336.400 352.800 C 336.400 351.506,336.580 350.336,336.800 350.200 C 337.020 350.064,337.200 348.804,337.200 347.400 C 337.200 345.996,337.380 344.736,337.600 344.600 C 337.820 344.464,338.000 343.294,338.000 342.000 C 338.000 340.706,338.180 339.536,338.400 339.400 C 338.620 339.264,338.800 338.119,338.800 336.856 C 338.800 335.593,338.965 334.389,339.166 334.180 C 339.368 333.971,339.631 332.720,339.751 331.400 C 339.871 330.080,340.149 327.740,340.370 326.200 C 341.255 320.032,341.552 317.296,341.575 315.100 C 341.589 313.835,341.780 312.800,342.000 312.800 C 342.222 312.800,342.400 311.741,342.400 310.424 C 342.400 309.117,342.580 307.936,342.800 307.800 C 343.020 307.664,343.200 306.494,343.200 305.200 C 343.200 303.906,343.380 302.736,343.600 302.600 C 343.820 302.464,344.000 301.193,344.000 299.776 C 344.000 298.325,344.175 297.200,344.400 297.200 C 344.629 297.200,344.800 296.000,344.800 294.400 C 344.800 292.800,344.971 291.600,345.200 291.600 C 345.426 291.600,345.600 290.467,345.600 289.000 C 345.600 287.533,345.774 286.400,346.000 286.400 C 346.225 286.400,346.400 285.275,346.400 283.824 C 346.400 282.407,346.580 281.136,346.800 281.000 C 347.020 280.864,347.200 279.683,347.200 278.376 C 347.200 277.059,347.378 276.000,347.600 276.000 C 347.825 276.000,348.000 274.875,348.000 273.424 C 348.000 272.007,348.180 270.736,348.400 270.600 C 348.620 270.464,348.800 269.193,348.800 267.776 C 348.800 266.325,348.975 265.200,349.200 265.200 C 349.429 265.200,349.600 264.000,349.600 262.400 C 349.600 260.800,349.771 259.600,350.000 259.600 C 350.222 259.600,350.400 258.541,350.400 257.224 C 350.400 255.917,350.580 254.736,350.800 254.600 C 351.020 254.464,351.200 253.294,351.200 252.000 C 351.200 250.706,351.380 249.536,351.600 249.400 C 351.820 249.264,352.000 248.004,352.000 246.600 C 352.000 245.196,352.180 243.936,352.400 243.800 C 352.620 243.664,352.800 242.494,352.800 241.200 C 352.800 239.906,352.980 238.736,353.200 238.600 C 353.420 238.464,353.600 237.193,353.600 235.776 C 353.600 234.325,353.775 233.200,354.000 233.200 C 354.225 233.200,354.400 232.075,354.400 230.624 C 354.400 229.207,354.580 227.936,354.800 227.800 C 355.020 227.664,355.200 226.519,355.200 225.256 C 355.200 223.993,355.365 222.789,355.566 222.580 C 355.768 222.371,356.040 221.030,356.171 219.600 C 356.777 213.005,356.890 212.176,357.234 211.820 C 357.435 211.611,357.600 210.407,357.600 209.144 C 357.600 207.881,357.762 206.747,357.960 206.625 C 358.157 206.503,358.449 204.152,358.608 201.401 C 358.766 198.651,359.055 196.400,359.248 196.400 C 359.442 196.400,359.600 195.140,359.600 193.600 C 359.600 192.000,359.771 190.800,360.000 190.800 C 360.226 190.800,360.400 189.667,360.400 188.200 C 360.400 186.733,360.574 185.600,360.800 185.600 C 361.029 185.600,361.200 184.400,361.200 182.800 C 361.200 181.200,361.371 180.000,361.600 180.000 C 361.822 180.000,362.000 178.933,362.000 177.600 L 362.000 175.200 373.462 175.200 L 384.924 175.200 386.462 173.583 L 388.000 171.966 388.000 156.355 C 388.000 144.410,387.883 140.620,387.500 140.220 C 387.225 139.933,386.735 139.316,386.412 138.849 C 386.088 138.382,385.593 138.000,385.312 138.000 C 385.030 138.000,384.800 137.820,384.800 137.600 C 384.800 137.347,381.933 137.200,377.000 137.200 L 369.200 137.200 369.200 133.824 C 369.200 131.967,369.020 130.336,368.800 130.200 C 368.580 130.064,368.400 129.333,368.400 128.576 C 368.400 127.819,368.220 127.200,368.000 127.200 C 367.780 127.200,367.600 126.840,367.600 126.400 C 367.600 125.960,367.420 125.600,367.200 125.600 C 366.980 125.600,366.800 125.257,366.800 124.838 C 366.800 123.931,365.192 120.800,364.726 120.800 C 364.547 120.800,364.400 120.480,364.400 120.088 C 364.400 119.697,364.040 119.117,363.600 118.800 C 363.160 118.483,362.800 118.009,362.800 117.747 C 362.800 115.887,352.808 108.400,350.327 108.400 C 349.927 108.400,349.600 108.220,349.600 108.000 C 349.600 107.780,349.240 107.600,348.800 107.600 C 348.360 107.600,348.000 107.420,348.000 107.200 C 348.000 106.980,347.280 106.800,346.400 106.800 C 345.520 106.800,344.800 106.620,344.800 106.400 C 344.800 106.172,343.604 106.000,342.013 106.000 C 338.999 106.000,338.792 105.720,340.382 103.800 C 340.746 103.360,341.394 102.237,341.822 101.305 C 342.250 100.372,342.735 99.607,342.900 99.605 C 343.065 99.602,343.200 99.240,343.200 98.800 C 343.200 98.360,343.380 98.000,343.600 98.000 C 343.820 98.000,344.000 97.640,344.000 97.200 C 344.000 96.760,344.180 96.400,344.400 96.400 C 344.620 96.400,344.800 96.040,344.800 95.600 C 344.800 95.160,344.980 94.800,345.200 94.800 C 345.420 94.800,345.600 94.528,345.600 94.195 C 345.600 93.862,345.808 93.187,346.062 92.695 C 347.058 90.769,347.200 90.383,347.200 89.605 C 347.200 89.162,347.380 88.800,347.600 88.800 C 347.820 88.800,348.000 88.271,348.000 87.624 C 348.000 86.977,348.180 86.336,348.400 86.200 C 348.620 86.064,348.800 85.344,348.800 84.600 C 348.800 83.856,348.980 83.136,349.200 83.000 C 349.420 82.864,349.600 81.964,349.600 81.000 C 349.600 80.036,349.780 79.136,350.000 79.000 C 350.241 78.851,350.400 76.102,350.400 72.096 L 350.400 65.439 348.580 63.719 L 346.760 62.000 343.580 62.000 C 341.727 62.000,340.400 62.167,340.400 62.400 C 340.400 62.620,340.040 62.800,339.600 62.800 C 339.160 62.800,338.800 62.980,338.800 63.200 C 338.800 63.420,338.440 63.600,338.000 63.600 C 337.560 63.600,337.200 63.780,337.200 64.000 C 337.200 64.220,336.840 64.400,336.400 64.400 C 335.960 64.400,335.600 64.580,335.600 64.800 C 335.600 65.020,335.240 65.200,334.800 65.200 C 334.360 65.200,334.000 65.380,334.000 65.600 C 334.000 65.820,333.640 66.000,333.200 66.000 C 332.760 66.000,332.400 66.180,332.400 66.400 C 332.400 66.620,332.040 66.800,331.600 66.800 C 331.160 66.800,330.800 66.980,330.800 67.200 C 330.800 67.420,330.440 67.600,330.000 67.600 C 329.560 67.600,329.200 67.746,329.200 67.925 C 329.200 68.104,328.570 68.498,327.800 68.800 C 327.030 69.102,326.400 69.496,326.400 69.675 C 326.400 69.854,326.040 70.000,325.600 70.000 C 325.160 70.000,324.800 70.180,324.800 70.400 C 324.800 70.620,324.440 70.800,324.000 70.800 C 323.560 70.800,323.200 70.980,323.200 71.200 C 323.200 71.420,322.840 71.600,322.400 71.600 C 321.960 71.600,321.600 71.780,321.600 72.000 C 321.600 72.220,321.240 72.400,320.800 72.400 C 320.360 72.400,320.000 72.580,320.000 72.800 C 320.000 73.020,319.640 73.200,319.200 73.200 C 318.760 73.200,318.400 73.380,318.400 73.600 C 318.400 73.820,318.040 74.000,317.600 74.000 C 317.160 74.000,316.800 74.180,316.800 74.400 C 316.800 74.620,316.440 74.800,316.000 74.800 C 315.560 74.800,315.200 74.980,315.200 75.200 C 315.200 75.420,314.840 75.600,314.400 75.600 C 313.960 75.600,313.600 75.780,313.600 76.000 C 313.600 76.220,313.240 76.400,312.800 76.400 C 312.360 76.400,312.000 76.560,312.000 76.755 C 312.000 76.951,311.370 77.229,310.600 77.374 C 309.830 77.518,309.200 77.808,309.200 78.018 C 309.200 78.228,308.840 78.400,308.400 78.400 C 307.960 78.400,307.600 78.580,307.600 78.800 C 307.600 79.020,307.240 79.200,306.800 79.200 C 306.360 79.200,306.000 79.380,306.000 79.600 C 306.000 79.820,305.640 80.000,305.200 80.000 C 304.760 80.000,304.400 80.180,304.400 80.400 C 304.400 80.620,304.040 80.800,303.600 80.800 C 303.160 80.800,302.800 80.980,302.800 81.200 C 302.800 81.420,302.440 81.600,302.000 81.600 C 301.560 81.600,301.200 81.780,301.200 82.000 C 301.200 82.220,300.840 82.400,300.400 82.400 C 299.960 82.400,299.600 82.580,299.600 82.800 C 299.600 83.020,299.240 83.200,298.800 83.200 C 298.360 83.200,298.000 83.380,298.000 83.600 C 298.000 83.820,297.640 84.000,297.200 84.000 C 296.760 84.000,296.400 84.146,296.400 84.325 C 296.400 84.504,295.770 84.898,295.000 85.200 C 294.230 85.502,293.600 85.896,293.600 86.075 C 293.600 86.254,293.240 86.400,292.800 86.400 C 292.360 86.400,292.000 86.580,292.000 86.800 C 292.000 87.020,291.640 87.200,291.200 87.200 C 290.760 87.200,290.400 87.380,290.400 87.600 C 290.400 87.820,290.040 88.000,289.600 88.000 C 289.160 88.000,288.800 88.180,288.800 88.400 C 288.800 88.620,288.440 88.800,288.000 88.800 C 287.560 88.800,287.200 88.980,287.200 89.200 C 287.200 89.420,286.840 89.600,286.400 89.600 C 285.960 89.600,285.600 89.780,285.600 90.000 C 285.600 90.220,285.240 90.400,284.800 90.400 C 284.360 90.400,284.000 90.580,284.000 90.800 C 284.000 91.020,283.640 91.200,283.200 91.200 C 282.760 91.200,282.400 91.380,282.400 91.600 C 282.400 91.820,282.220 92.000,282.000 92.000 C 281.780 92.000,281.600 91.046,281.600 89.880 C 281.600 88.714,281.403 87.563,281.162 87.322 C 280.279 86.439,281.216 85.343,292.382 74.179 L 303.764 62.800 307.882 62.800 C 310.361 62.800,312.000 62.641,312.000 62.400 C 312.000 62.180,312.540 62.000,313.200 62.000 C 313.860 62.000,314.400 61.820,314.400 61.600 C 314.400 61.380,314.760 61.200,315.200 61.200 C 315.640 61.200,316.000 61.020,316.000 60.800 C 316.000 60.580,316.225 60.398,316.500 60.395 C 317.875 60.380,321.980 56.165,323.692 53.011 C 325.337 49.979,325.864 40.549,324.604 36.697 C 323.439 33.133,319.162 27.945,316.900 27.350 C 316.405 27.220,316.000 26.953,316.000 26.757 C 316.000 26.560,315.640 26.400,315.200 26.400 C 314.760 26.400,314.400 26.220,314.400 26.000 C 314.400 25.780,313.860 25.600,313.200 25.600 C 312.133 25.600,312.000 25.467,312.000 24.400 C 312.000 23.740,311.820 23.200,311.600 23.200 C 311.380 23.200,311.200 22.840,311.200 22.400 C 311.200 21.960,311.020 21.600,310.800 21.600 C 310.580 21.600,310.400 21.375,310.400 21.100 C 310.399 20.825,309.994 20.114,309.500 19.519 C 309.005 18.924,308.330 18.097,308.000 17.680 C 306.460 15.736,302.917 13.542,299.572 12.461 C 297.841 11.902,289.472 11.925,287.800 12.493 M296.412 25.700 C 298.656 26.834,300.000 28.791,300.000 30.924 C 300.000 34.364,303.306 37.598,306.826 37.601 C 309.916 37.605,312.396 40.382,312.399 43.841 C 312.401 47.689,309.561 50.274,305.825 49.822 C 297.875 48.860,299.307 48.023,286.000 61.404 L 276.200 71.259 275.200 69.937 C 273.839 68.137,269.316 63.607,267.600 62.324 L 266.200 61.277 276.714 50.792 C 288.162 39.376,288.579 38.843,288.257 36.052 C 287.482 29.334,287.478 29.476,288.468 28.000 C 289.442 26.548,292.354 24.800,293.800 24.800 C 294.257 24.800,295.432 25.205,296.412 25.700 M90.600 50.759 C 93.386 52.386,94.105 54.908,93.129 59.632 C 92.311 63.593,92.605 64.014,104.397 75.778 C 110.119 81.486,114.800 86.285,114.800 86.443 C 114.800 86.601,113.664 87.540,112.276 88.531 C 109.899 90.227,107.862 92.389,106.276 94.900 C 105.231 96.555,105.475 96.745,94.076 85.392 C 81.898 73.263,82.120 73.407,77.503 74.579 C 74.472 75.349,72.605 75.031,70.862 73.451 C 66.578 69.566,69.453 62.400,75.294 62.400 C 78.161 62.400,81.200 59.264,81.200 56.307 C 81.200 51.659,86.641 48.447,90.600 50.759 M255.107 70.425 C 262.401 72.371,265.438 75.723,267.589 84.200 C 268.136 86.352,268.052 96.158,267.468 98.384 L 267.000 100.169 256.340 105.584 C 250.478 108.563,244.907 111.521,243.961 112.158 C 236.840 116.954,231.921 125.414,231.261 134.000 L 231.000 137.400 208.572 137.503 L 186.145 137.607 184.894 134.903 C 179.231 122.663,180.117 109.724,187.409 98.184 C 194.331 87.230,216.443 74.470,234.800 70.838 C 236.010 70.598,237.810 70.241,238.800 70.044 C 242.471 69.313,251.752 69.530,255.107 70.425 M336.000 80.734 C 336.000 81.922,334.448 86.345,332.765 89.956 C 324.449 107.789,306.844 118.762,286.500 118.792 L 281.200 118.800 281.200 125.000 L 281.200 131.200 286.535 131.200 C 291.135 131.200,296.930 130.610,300.400 129.788 C 300.950 129.657,302.210 129.361,303.200 129.130 C 309.371 127.687,317.490 123.966,322.848 120.125 L 324.696 118.800 332.686 118.800 C 343.240 118.800,347.128 120.084,351.453 125.000 C 354.272 128.204,357.015 135.020,356.269 136.966 C 356.048 137.541,350.758 137.600,299.767 137.600 L 243.510 137.600 243.665 134.860 C 243.787 132.700,244.136 131.479,245.313 129.096 C 248.141 123.375,246.230 124.497,293.161 100.995 C 336.508 79.287,336.000 79.528,336.000 80.734 M141.635 95.007 C 146.207 95.743,148.551 96.209,150.400 96.747 C 151.170 96.971,152.430 97.324,153.200 97.530 C 155.418 98.124,158.537 99.190,159.295 99.613 C 159.677 99.826,160.166 100.000,160.383 100.000 C 161.158 100.000,170.252 104.236,170.565 104.743 C 170.681 104.931,170.529 106.145,170.227 107.442 C 167.987 117.071,168.558 127.403,171.788 135.655 C 172.598 137.724,174.328 137.600,144.568 137.600 L 117.269 137.600 116.473 135.100 C 111.486 119.440,112.228 105.772,118.400 99.600 C 120.991 97.009,123.005 96.107,129.400 94.672 C 131.256 94.256,138.144 94.444,141.635 95.007 M375.000 156.200 L 375.000 162.200 231.300 162.301 L 87.600 162.401 87.600 156.200 L 87.600 149.999 231.300 150.099 L 375.000 150.200 375.000 156.200 M133.035 231.835 C 124.718 234.100,118.800 241.616,118.800 249.914 C 118.800 252.595,118.544 253.596,117.857 253.607 C 117.606 253.611,112.457 258.561,106.415 264.607 C 96.626 274.404,94.000 276.644,94.000 275.200 C 94.000 274.965,92.600 274.800,90.600 274.800 C 88.600 274.800,87.200 274.965,87.200 275.200 C 87.200 275.439,85.667 275.600,83.400 275.600 C 81.133 275.600,79.600 275.761,79.600 276.000 C 79.600 276.220,78.700 276.400,77.600 276.400 C 76.500 276.400,75.600 276.559,75.600 276.753 C 75.600 276.947,74.251 277.232,72.603 277.387 C 70.954 277.541,69.504 277.833,69.379 278.034 C 69.255 278.235,68.724 278.400,68.200 278.400 C 67.676 278.400,67.136 278.580,67.000 278.800 C 66.864 279.020,66.223 279.200,65.576 279.200 C 64.929 279.200,64.400 279.380,64.400 279.600 C 64.400 279.820,63.961 280.000,63.424 280.000 C 62.887 280.000,62.336 280.180,62.200 280.400 C 62.064 280.620,61.513 280.800,60.976 280.800 C 60.439 280.800,60.000 280.980,60.000 281.200 C 60.000 281.420,59.561 281.600,59.024 281.600 C 58.487 281.600,57.936 281.780,57.800 282.000 C 57.664 282.220,57.203 282.400,56.776 282.400 C 56.349 282.400,56.000 282.580,56.000 282.800 C 56.000 283.020,55.640 283.200,55.200 283.200 C 54.760 283.200,54.400 283.380,54.400 283.600 C 54.400 283.820,54.128 284.000,53.795 284.000 C 53.462 284.000,52.877 284.160,52.495 284.356 C 52.113 284.552,50.900 285.137,49.800 285.656 C 48.700 286.175,47.740 286.735,47.667 286.900 C 47.593 287.065,47.188 287.200,46.767 287.200 C 46.345 287.200,46.000 287.380,46.000 287.600 C 46.000 287.820,45.730 288.000,45.400 288.000 C 45.070 288.000,44.800 288.180,44.800 288.400 C 44.800 288.620,44.530 288.800,44.200 288.800 C 43.870 288.800,43.600 288.980,43.600 289.200 C 43.600 289.420,43.240 289.600,42.800 289.600 C 42.360 289.600,42.000 289.780,42.000 290.000 C 42.000 290.220,41.680 290.400,41.288 290.400 C 40.897 290.400,40.317 290.760,40.000 291.200 C 39.683 291.640,39.143 292.000,38.800 292.000 C 38.457 292.000,37.917 292.360,37.600 292.800 C 37.283 293.240,36.711 293.600,36.330 293.600 C 35.948 293.600,35.209 294.027,34.688 294.549 C 34.166 295.071,33.339 295.712,32.850 295.973 C 31.100 296.910,23.200 304.520,23.200 305.270 C 23.200 305.495,22.660 306.183,22.000 306.800 C 21.340 307.417,20.800 308.143,20.800 308.414 C 20.800 308.684,20.471 309.197,20.070 309.553 C 19.668 309.909,19.084 310.785,18.772 311.500 C 18.460 312.215,18.069 312.800,17.902 312.800 C 17.736 312.800,17.600 313.160,17.600 313.600 C 17.600 314.040,17.420 314.400,17.200 314.400 C 16.980 314.400,16.800 314.760,16.800 315.200 C 16.800 315.640,16.620 316.000,16.400 316.000 C 16.180 316.000,16.000 316.360,16.000 316.800 C 16.000 317.240,15.820 317.600,15.600 317.600 C 15.380 317.600,15.200 318.039,15.200 318.576 C 15.200 319.113,15.020 319.664,14.800 319.800 C 14.580 319.936,14.400 320.476,14.400 321.000 C 14.400 321.524,14.220 322.064,14.000 322.200 C 13.780 322.336,13.600 322.966,13.600 323.600 C 13.600 324.234,13.420 324.864,13.200 325.000 C 12.980 325.136,12.800 326.011,12.800 326.944 C 12.800 327.877,12.613 328.827,12.384 329.056 C 11.826 329.614,12.134 345.076,12.762 348.000 C 13.021 349.210,13.336 350.785,13.460 351.500 C 13.585 352.215,13.848 352.800,14.044 352.800 C 14.240 352.800,14.400 353.340,14.400 354.000 C 14.400 354.660,14.580 355.200,14.800 355.200 C 15.020 355.200,15.200 355.524,15.200 355.920 C 15.200 356.814,16.094 358.793,16.500 358.797 C 16.665 358.799,16.800 359.160,16.800 359.600 C 16.800 360.040,16.980 360.400,17.200 360.400 C 17.420 360.400,17.600 360.760,17.600 361.200 C 17.600 361.640,17.780 362.000,18.000 362.000 C 18.220 362.000,18.400 362.360,18.400 362.800 C 18.400 363.240,18.580 363.600,18.800 363.600 C 19.020 363.600,19.200 363.836,19.200 364.125 C 19.200 364.413,19.560 365.036,20.000 365.508 C 20.440 365.980,20.800 366.532,20.800 366.735 C 20.800 366.938,21.520 367.845,22.400 368.752 C 23.280 369.659,24.003 370.536,24.008 370.700 C 24.018 371.095,28.988 376.000,29.378 376.000 C 29.543 376.000,30.183 376.540,30.800 377.200 C 31.417 377.860,32.119 378.400,32.360 378.400 C 32.602 378.400,32.800 378.580,32.800 378.800 C 32.800 379.020,33.070 379.200,33.400 379.200 C 33.730 379.200,34.000 379.380,34.000 379.600 C 34.000 379.820,34.270 380.000,34.600 380.000 C 34.930 380.000,35.200 380.180,35.200 380.400 C 35.200 380.620,35.470 380.800,35.800 380.800 C 36.130 380.800,36.400 380.980,36.400 381.200 C 36.400 381.420,36.760 381.600,37.200 381.600 C 37.640 381.600,38.000 381.780,38.000 382.000 C 38.000 382.220,38.360 382.400,38.800 382.400 C 39.240 382.400,39.600 382.580,39.600 382.800 C 39.600 383.020,39.960 383.200,40.400 383.200 C 40.840 383.200,41.200 383.380,41.200 383.600 C 41.200 383.820,41.560 384.000,42.000 384.000 C 42.440 384.000,42.800 384.180,42.800 384.400 C 42.800 384.620,43.250 384.800,43.800 384.800 C 44.350 384.800,44.800 384.980,44.800 385.200 C 44.800 385.420,45.340 385.600,46.000 385.600 C 46.660 385.600,47.200 385.780,47.200 386.000 C 47.200 386.220,47.819 386.400,48.576 386.400 C 49.333 386.400,50.064 386.580,50.200 386.800 C 50.336 387.020,51.146 387.200,52.000 387.200 C 52.854 387.200,53.664 387.380,53.800 387.600 C 54.134 388.141,70.666 388.141,71.000 387.600 C 71.136 387.380,72.036 387.200,73.000 387.200 C 73.964 387.200,74.864 387.020,75.000 386.800 C 75.136 386.580,75.766 386.400,76.400 386.400 C 77.034 386.400,77.664 386.220,77.800 386.000 C 77.936 385.780,78.476 385.600,79.000 385.600 C 79.524 385.600,80.064 385.420,80.200 385.200 C 80.336 384.980,80.887 384.800,81.424 384.800 C 81.961 384.800,82.400 384.620,82.400 384.400 C 82.400 384.180,82.760 384.000,83.200 384.000 C 83.640 384.000,84.000 383.820,84.000 383.600 C 84.000 383.380,84.360 383.200,84.800 383.200 C 85.240 383.200,85.600 383.020,85.600 382.800 C 85.600 382.580,85.960 382.400,86.400 382.400 C 86.840 382.400,87.200 382.220,87.200 382.000 C 87.200 381.780,87.560 381.600,88.000 381.600 C 88.440 381.600,88.800 381.420,88.800 381.200 C 88.800 380.980,89.070 380.800,89.400 380.800 C 89.730 380.800,90.000 380.620,90.000 380.400 C 90.000 380.180,90.270 380.000,90.600 380.000 C 90.930 380.000,91.200 379.820,91.200 379.600 C 91.200 379.380,91.380 379.200,91.600 379.200 C 91.819 379.200,92.741 378.480,93.648 377.600 C 94.555 376.720,95.500 376.000,95.748 375.999 C 96.208 375.998,100.691 371.484,102.269 369.433 L 103.139 368.302 104.169 369.333 C 104.736 369.900,105.203 370.507,105.208 370.682 C 105.217 371.089,110.177 376.000,110.578 376.000 C 110.743 376.000,111.383 376.540,112.000 377.200 C 112.617 377.860,113.319 378.400,113.560 378.400 C 113.802 378.400,114.000 378.580,114.000 378.800 C 114.000 379.020,114.270 379.200,114.600 379.200 C 114.930 379.200,115.200 379.380,115.200 379.600 C 115.200 379.820,115.470 380.000,115.800 380.000 C 116.130 380.000,116.400 380.180,116.400 380.400 C 116.400 380.620,116.670 380.800,117.000 380.800 C 117.330 380.800,117.600 380.980,117.600 381.200 C 117.600 381.420,117.960 381.600,118.400 381.600 C 118.840 381.600,119.200 381.780,119.200 382.000 C 119.200 382.220,119.560 382.400,120.000 382.400 C 120.440 382.400,120.800 382.580,120.800 382.800 C 120.800 383.020,121.160 383.200,121.600 383.200 C 122.040 383.200,122.400 383.380,122.400 383.600 C 122.400 383.820,122.760 384.000,123.200 384.000 C 123.640 384.000,124.000 384.180,124.000 384.400 C 124.000 384.620,124.362 384.800,124.805 384.800 C 125.248 384.800,125.968 384.980,126.405 385.200 C 126.842 385.420,127.558 385.780,127.995 386.000 C 128.432 386.220,129.231 386.400,129.771 386.400 C 130.311 386.400,130.864 386.580,131.000 386.800 C 131.136 387.020,132.036 387.200,133.000 387.200 C 133.964 387.200,134.864 387.380,135.000 387.600 C 135.153 387.847,138.663 388.000,144.200 388.000 C 149.737 388.000,153.247 387.847,153.400 387.600 C 153.536 387.380,154.627 387.200,155.824 387.200 C 157.021 387.200,158.000 387.020,158.000 386.800 C 158.000 386.580,158.799 386.400,159.776 386.400 C 160.753 386.400,161.664 386.220,161.800 386.000 C 161.936 385.780,162.566 385.600,163.200 385.600 C 163.834 385.600,164.464 385.420,164.600 385.200 C 164.736 384.980,165.467 384.800,166.224 384.800 C 166.981 384.800,167.600 384.620,167.600 384.400 C 167.600 384.180,168.140 384.000,168.800 384.000 C 169.460 384.000,170.000 383.820,170.000 383.600 C 170.000 383.380,170.540 383.200,171.200 383.200 C 171.860 383.200,172.400 383.020,172.400 382.800 C 172.400 382.580,172.846 382.400,173.391 382.400 C 174.006 382.400,174.630 382.021,175.037 381.400 C 175.397 380.850,175.925 380.400,176.210 380.400 C 176.979 380.400,185.084 376.679,188.833 374.606 C 190.628 373.613,192.172 372.800,192.264 372.800 C 193.676 372.800,204.530 364.238,208.690 359.844 L 211.950 356.400 225.280 356.400 L 238.611 356.400 239.606 358.497 C 242.295 364.170,249.720 368.800,256.127 368.800 C 271.109 368.800,280.065 351.704,271.560 339.341 L 270.308 337.522 271.144 336.390 C 280.643 323.543,271.162 305.641,255.309 306.489 C 248.682 306.844,242.572 310.692,239.710 316.313 L 238.546 318.600 225.228 318.705 L 211.910 318.811 210.257 316.905 C 196.717 301.302,169.285 288.836,146.084 287.745 C 143.161 287.607,140.821 287.347,140.884 287.166 C 140.948 286.985,142.225 285.569,143.722 284.019 L 146.444 281.200 149.756 281.200 C 169.679 281.200,176.083 253.143,157.882 245.599 C 155.769 244.723,155.572 244.517,154.272 241.836 C 150.484 234.021,141.148 229.624,133.035 231.835 M139.713 244.151 C 141.936 245.102,143.117 246.744,143.749 249.763 C 144.651 254.061,146.340 255.707,150.558 256.393 C 158.926 257.755,157.736 269.747,149.344 268.628 C 141.690 267.608,143.627 266.469,130.219 279.871 C 119.938 290.146,119.895 290.183,119.249 289.274 C 116.252 285.059,114.997 283.801,110.798 280.800 C 109.987 280.220,110.309 279.850,120.566 269.600 C 126.400 263.770,131.376 258.516,131.625 257.924 C 132.189 256.582,132.188 253.098,131.623 252.043 C 129.297 247.697,134.999 242.134,139.713 244.151 M98.600 289.073 C 103.665 290.327,107.662 293.366,109.562 297.409 C 110.719 299.870,110.659 300.142,108.479 302.299 C 95.531 315.113,90.735 334.631,96.145 352.495 L 96.719 354.390 94.810 357.108 C 84.667 371.551,68.482 378.036,53.108 373.815 C 49.428 372.805,49.138 372.701,46.645 371.498 C 23.347 360.255,17.766 330.059,35.547 311.462 C 42.947 303.722,58.414 295.163,72.028 291.274 C 83.192 288.085,91.743 287.376,98.600 289.073 M149.880 300.359 C 150.936 300.557,153.060 300.938,154.600 301.206 C 157.087 301.640,158.452 301.963,163.000 303.194 C 171.270 305.432,182.772 310.726,190.169 315.698 C 201.886 323.574,207.950 333.130,205.972 340.600 C 203.379 350.387,190.338 361.384,173.000 368.402 C 167.371 370.680,161.395 372.451,154.200 373.974 C 128.442 379.426,106.536 362.585,106.624 337.400 C 106.690 318.457,118.402 304.494,137.600 300.473 C 139.976 299.976,147.458 299.906,149.880 300.359 M259.504 319.598 C 264.560 322.681,262.565 331.192,256.785 331.199 C 253.541 331.202,250.025 334.342,250.007 337.251 C 249.987 340.386,252.983 343.600,255.925 343.600 C 262.513 343.600,264.859 352.324,259.146 355.573 C 255.193 357.820,250.000 354.747,250.000 350.161 C 250.000 348.144,248.376 345.469,246.653 344.652 C 245.473 344.092,243.479 343.999,232.540 343.995 C 217.581 343.988,217.810 344.019,218.264 342.044 C 218.694 340.178,218.694 335.079,218.265 332.900 L 217.930 331.200 231.570 331.200 C 241.739 331.200,245.439 331.073,246.105 330.700 C 248.567 329.324,250.000 327.118,250.000 324.706 C 250.000 320.314,255.675 317.264,259.504 319.598 " stroke="none" fill="#000000" fill-rule="evenodd"></path><path id="path4" d="M288.493 36.400 C 288.493 37.170,288.575 37.485,288.676 37.100 C 288.776 36.715,288.776 36.085,288.676 35.700 C 288.575 35.315,288.493 35.630,288.493 36.400 M286.175 41.300 L 285.000 42.600 286.300 41.425 C 287.015 40.779,287.600 40.194,287.600 40.125 C 287.600 39.816,287.270 40.088,286.175 41.300 M300.500 49.076 C 300.885 49.176,301.515 49.176,301.900 49.076 C 302.285 48.975,301.970 48.893,301.200 48.893 C 300.430 48.893,300.115 48.975,300.500 49.076 M90.433 50.900 C 90.525 50.955,91.140 51.450,91.800 52.000 L 93.000 53.000 92.030 51.900 C 91.497 51.295,90.882 50.800,90.664 50.800 C 90.445 50.800,90.342 50.845,90.433 50.900 M272.192 55.300 L 268.600 59.000 272.300 55.408 C 275.736 52.072,276.182 51.600,275.892 51.600 C 275.832 51.600,274.167 53.265,272.192 55.300 M266.783 60.620 C 266.356 61.135,266.395 61.355,267.012 61.920 C 267.715 62.562,267.727 62.561,267.229 61.900 C 266.807 61.340,266.802 61.080,267.200 60.600 C 267.474 60.270,267.608 60.000,267.498 60.000 C 267.388 60.000,267.066 60.279,266.783 60.620 M271.583 65.700 C 272.564 66.745,273.419 67.600,273.483 67.600 C 273.784 67.600,273.466 67.241,271.700 65.583 L 269.800 63.800 271.583 65.700 M274.000 68.248 C 274.000 68.458,274.553 69.253,275.229 70.015 L 276.458 71.400 275.345 69.800 C 274.733 68.920,274.180 68.125,274.116 68.033 C 274.052 67.942,274.000 68.038,274.000 68.248 M239.400 70.020 C 238.611 70.235,239.022 70.270,240.600 70.123 C 241.920 70.000,243.075 69.832,243.167 69.750 C 243.464 69.482,240.634 69.685,239.400 70.020 M250.833 69.747 C 250.925 69.828,251.720 70.004,252.600 70.138 C 253.715 70.307,253.958 70.271,253.400 70.019 C 252.632 69.671,250.490 69.444,250.833 69.747 M234.800 70.800 C 234.008 71.054,233.967 71.120,234.600 71.120 C 235.040 71.120,235.850 70.976,236.400 70.800 C 237.192 70.546,237.233 70.480,236.600 70.480 C 236.160 70.480,235.350 70.624,234.800 70.800 M231.400 71.600 L 230.600 71.944 231.400 71.966 C 231.840 71.978,232.470 71.813,232.800 71.600 C 233.595 71.086,232.596 71.086,231.400 71.600 M257.633 71.349 C 258.045 71.717,260.400 72.800,260.400 72.621 C 260.400 72.390,258.182 71.200,257.753 71.200 C 257.596 71.200,257.542 71.267,257.633 71.349 M70.687 73.209 C 71.395 73.951,72.042 74.478,72.125 74.379 C 72.208 74.281,71.629 73.673,70.838 73.029 L 69.400 71.858 70.687 73.209 M263.164 75.133 C 263.380 75.536,263.874 76.121,264.263 76.433 C 264.764 76.835,264.704 76.622,264.057 75.700 C 263.069 74.291,262.531 73.949,263.164 75.133 M217.600 76.291 C 215.902 76.935,212.800 78.450,212.800 78.635 C 212.800 78.752,212.935 78.776,213.100 78.690 C 214.380 78.018,217.263 76.800,217.572 76.800 C 217.781 76.800,218.064 76.620,218.200 76.400 C 218.471 75.962,218.468 75.962,217.600 76.291 M88.600 80.000 C 90.571 81.980,92.273 83.600,92.383 83.600 C 92.493 83.600,90.971 81.980,89.000 80.000 C 87.029 78.020,85.327 76.400,85.217 76.400 C 85.107 76.400,86.629 78.020,88.600 80.000 M335.649 80.600 C 335.616 81.040,335.496 81.850,335.383 82.400 L 335.177 83.400 335.606 82.419 C 335.842 81.879,335.961 81.069,335.872 80.619 C 335.713 79.821,335.707 79.821,335.649 80.600 M206.300 81.829 C 204.805 82.640,204.896 82.978,206.400 82.200 C 207.060 81.859,207.600 81.494,207.600 81.390 C 207.600 81.132,207.557 81.147,206.300 81.829 M329.600 82.800 C 328.830 83.222,328.344 83.574,328.520 83.583 C 328.944 83.605,331.200 82.432,331.200 82.190 C 331.200 81.928,331.177 81.937,329.600 82.800 M267.472 85.400 C 267.599 86.500,267.769 87.475,267.851 87.567 C 268.132 87.882,267.920 85.399,267.580 84.400 C 267.351 83.726,267.316 84.051,267.472 85.400 M113.400 87.435 L 112.200 88.466 113.500 87.606 C 114.215 87.133,114.800 86.668,114.800 86.573 C 114.800 86.273,114.631 86.378,113.400 87.435 M192.412 92.188 C 190.779 93.832,189.524 95.230,189.622 95.295 C 189.720 95.360,191.138 94.016,192.772 92.307 C 196.565 88.343,196.313 88.261,192.412 92.188 M103.000 94.400 C 103.859 95.280,104.652 96.000,104.762 96.000 C 104.872 96.000,104.259 95.280,103.400 94.400 C 102.541 93.520,101.748 92.800,101.638 92.800 C 101.528 92.800,102.141 93.520,103.000 94.400 M267.466 95.968 C 267.319 97.378,267.274 98.607,267.366 98.700 C 267.614 98.947,268.115 94.546,267.910 93.930 C 267.813 93.640,267.614 94.557,267.466 95.968 M132.316 94.697 C 133.699 94.775,135.859 94.774,137.116 94.695 C 138.372 94.616,137.240 94.552,134.600 94.553 C 131.960 94.553,130.932 94.618,132.316 94.697 M328.637 96.700 C 327.825 97.965,327.579 98.508,328.090 97.906 C 329.100 96.718,330.547 94.400,330.279 94.400 C 330.188 94.400,329.449 95.435,328.637 96.700 M142.705 95.483 C 143.202 95.579,143.922 95.575,144.305 95.475 C 144.687 95.375,144.280 95.296,143.400 95.301 C 142.520 95.305,142.207 95.387,142.705 95.483 M146.833 96.143 C 146.925 96.221,147.630 96.401,148.400 96.542 C 149.385 96.723,149.622 96.682,149.200 96.406 C 148.658 96.050,146.437 95.803,146.833 96.143 M120.000 98.144 C 119.010 98.872,117.935 99.813,117.612 100.234 C 117.121 100.874,117.186 100.861,118.012 100.152 C 118.555 99.686,119.792 98.741,120.760 98.052 C 121.728 97.364,122.358 96.804,122.160 96.810 C 121.962 96.815,120.990 97.416,120.000 98.144 M152.833 97.744 C 152.925 97.823,153.540 98.008,154.200 98.156 C 155.076 98.352,155.238 98.315,154.800 98.018 C 154.260 97.653,152.432 97.398,152.833 97.744 M296.800 99.200 C 296.030 99.622,295.544 99.974,295.720 99.983 C 296.144 100.005,298.400 98.832,298.400 98.590 C 298.400 98.328,298.377 98.337,296.800 99.200 M321.600 104.896 C 319.510 106.908,318.700 107.814,319.800 106.909 C 321.769 105.290,325.946 101.182,325.585 101.219 C 325.483 101.230,323.690 102.885,321.600 104.896 M114.249 106.615 C 114.112 106.973,114.015 107.566,114.034 107.933 C 114.053 108.300,114.227 108.069,114.421 107.420 C 114.798 106.158,114.665 105.533,114.249 106.615 M169.829 107.429 C 169.681 108.015,169.638 108.572,169.732 108.666 C 169.827 108.760,170.024 108.358,170.171 107.771 C 170.319 107.185,170.362 106.628,170.268 106.534 C 170.173 106.440,169.976 106.842,169.829 107.429 M250.700 108.027 C 249.875 108.463,249.200 108.908,249.200 109.018 C 249.200 109.127,249.920 108.849,250.800 108.400 C 251.680 107.951,252.400 107.497,252.400 107.392 C 252.400 107.130,252.397 107.131,250.700 108.027 M315.487 109.768 C 313.126 111.402,312.564 111.975,314.306 110.972 C 315.650 110.199,317.956 108.423,317.600 108.436 C 317.490 108.441,316.539 109.040,315.487 109.768 M182.200 110.000 C 182.048 110.691,182.007 111.341,182.109 111.442 C 182.211 111.544,182.409 111.053,182.550 110.350 C 182.883 108.683,182.560 108.360,182.200 110.000 M169.018 111.818 C 168.865 112.839,168.822 113.755,168.922 113.855 C 169.022 113.955,169.229 113.202,169.382 112.182 C 169.535 111.161,169.578 110.245,169.478 110.145 C 169.378 110.045,169.171 110.798,169.018 111.818 M113.357 116.000 C 113.357 118.970,113.420 120.185,113.497 118.700 C 113.574 117.215,113.574 114.785,113.497 113.300 C 113.420 111.815,113.357 113.030,113.357 116.000 M181.457 113.900 C 181.141 115.812,181.198 122.710,181.540 123.920 C 181.683 124.427,181.800 122.042,181.800 118.620 C 181.800 111.726,181.805 111.794,181.457 113.900 M240.271 114.900 L 237.734 117.400 240.167 115.227 C 241.505 114.032,242.771 112.907,242.980 112.727 C 243.189 112.547,243.236 112.400,243.084 112.400 C 242.932 112.400,241.666 113.525,240.271 114.900 M262.800 116.200 C 261.810 116.730,261.142 117.172,261.316 117.182 C 261.741 117.206,264.800 115.634,264.800 115.392 C 264.800 115.127,264.817 115.120,262.800 116.200 M297.000 117.600 C 296.496 117.817,296.422 117.944,296.800 117.944 C 297.130 117.944,297.760 117.789,298.200 117.600 C 298.704 117.383,298.778 117.256,298.400 117.256 C 298.070 117.256,297.440 117.411,297.000 117.600 M236.493 119.100 C 235.457 120.596,235.121 121.200,235.323 121.200 C 235.417 121.200,235.970 120.480,236.553 119.600 C 237.736 117.812,237.684 117.379,236.493 119.100 M290.600 118.400 L 288.200 118.666 290.400 118.685 C 291.610 118.696,293.140 118.568,293.800 118.400 C 295.338 118.009,294.137 118.009,290.600 118.400 M340.000 119.200 C 340.550 119.376,341.360 119.526,341.800 119.532 L 342.600 119.544 341.800 119.200 C 341.360 119.011,340.550 118.862,340.000 118.868 L 339.000 118.880 340.000 119.200 M248.309 124.725 C 247.319 125.783,246.299 127.088,246.043 127.625 L 245.577 128.600 246.287 127.600 C 246.678 127.050,247.788 125.745,248.754 124.700 C 249.719 123.655,250.419 122.800,250.309 122.800 C 250.199 122.800,249.299 123.666,248.309 124.725 M350.400 124.200 C 351.146 124.970,351.847 125.600,351.957 125.600 C 352.067 125.600,351.546 124.970,350.800 124.200 C 350.054 123.430,349.353 122.800,349.243 122.800 C 349.133 122.800,349.654 123.430,350.400 124.200 M114.093 125.200 C 114.093 125.970,114.175 126.285,114.276 125.900 C 114.376 125.515,114.376 124.885,114.276 124.500 C 114.175 124.115,114.093 124.430,114.093 125.200 M182.068 126.600 C 182.062 127.040,182.211 127.760,182.400 128.200 C 182.838 129.219,182.838 128.168,182.400 126.800 C 182.143 125.996,182.077 125.957,182.068 126.600 M169.656 129.200 C 169.656 129.530,169.811 130.160,170.000 130.600 C 170.217 131.104,170.344 131.178,170.344 130.800 C 170.344 130.470,170.189 129.840,170.000 129.400 C 169.783 128.896,169.656 128.822,169.656 129.200 M303.000 129.200 C 301.981 129.638,303.032 129.638,304.400 129.200 C 305.204 128.943,305.243 128.877,304.600 128.868 C 304.160 128.862,303.440 129.011,303.000 129.200 M231.449 129.815 C 231.312 130.173,231.215 130.766,231.234 131.133 C 231.253 131.500,231.427 131.269,231.621 130.620 C 231.998 129.358,231.865 128.733,231.449 129.815 M299.400 130.019 C 298.842 130.271,299.085 130.307,300.200 130.138 C 301.080 130.004,301.875 129.828,301.967 129.747 C 302.310 129.444,300.168 129.671,299.400 130.019 M296.305 130.683 C 296.802 130.779,297.522 130.775,297.905 130.675 C 298.287 130.575,297.880 130.496,297.000 130.501 C 296.120 130.505,295.807 130.587,296.305 130.683 M283.300 131.494 C 284.345 131.576,286.055 131.576,287.100 131.494 C 288.145 131.412,287.290 131.344,285.200 131.344 C 283.110 131.344,282.255 131.412,283.300 131.494 M243.701 134.200 C 243.705 135.080,243.787 135.393,243.883 134.895 C 243.979 134.398,243.975 133.678,243.875 133.295 C 243.775 132.913,243.696 133.320,243.701 134.200 M184.419 133.689 C 184.408 133.848,184.797 134.795,185.281 135.793 L 186.163 137.607 208.581 137.503 L 231.000 137.400 231.037 135.497 L 231.074 133.595 230.915 135.397 L 230.756 137.200 208.586 137.200 L 186.415 137.200 185.426 135.300 C 184.882 134.255,184.429 133.530,184.419 133.689 M356.054 135.899 L 356.000 137.197 299.700 137.300 L 243.400 137.403 299.713 137.501 C 360.709 137.608,356.709 137.748,356.286 135.529 C 356.151 134.821,356.096 134.909,356.054 135.899 M144.600 137.200 L 117.000 137.408 144.476 137.504 C 162.467 137.567,172.038 137.462,172.200 137.200 C 172.336 136.980,172.392 136.843,172.324 136.896 C 172.256 136.949,159.780 137.085,144.600 137.200 M374.960 156.200 C 374.961 159.500,375.022 160.797,375.098 159.082 C 375.173 157.367,375.172 154.667,375.097 153.082 C 375.021 151.497,374.959 152.900,374.960 156.200 M114.091 175.135 C 113.578 175.461,113.577 175.453,115.645 189.600 C 115.854 191.030,116.187 193.280,116.386 194.600 C 116.585 195.920,116.945 198.350,117.187 200.000 C 117.429 201.650,117.789 204.080,117.987 205.400 C 118.185 206.720,118.526 209.060,118.744 210.600 C 118.962 212.140,119.371 214.840,119.654 216.600 C 119.937 218.360,120.175 220.784,120.184 221.987 L 120.200 224.173 118.400 224.472 C 114.274 225.156,114.043 225.234,113.789 226.033 C 113.649 226.476,113.712 227.055,113.929 227.319 C 114.146 227.584,114.431 228.925,114.562 230.300 C 114.693 231.675,114.905 233.925,115.034 235.300 C 115.162 236.675,115.432 237.971,115.634 238.180 C 115.835 238.389,116.000 239.604,116.000 240.880 C 116.000 242.160,116.179 243.200,116.400 243.200 C 116.629 243.200,116.800 244.400,116.800 246.000 C 116.800 247.600,116.971 248.800,117.200 248.800 C 117.422 248.800,117.600 249.867,117.600 251.200 C 117.600 252.520,117.761 253.600,117.957 253.600 C 118.543 253.600,118.800 252.477,118.800 249.914 C 118.800 230.432,145.767 224.291,154.272 241.836 C 155.572 244.517,155.769 244.723,157.882 245.599 C 176.083 253.143,169.679 281.200,149.756 281.200 L 146.444 281.200 143.722 284.019 C 142.225 285.569,140.948 286.985,140.884 287.166 C 140.821 287.347,143.161 287.607,146.084 287.745 C 169.285 288.836,196.717 301.302,210.257 316.905 L 211.910 318.811 225.228 318.705 L 238.546 318.600 239.710 316.313 C 242.572 310.692,248.682 306.844,255.309 306.489 C 271.162 305.641,280.643 323.543,271.144 336.390 L 270.308 337.522 271.560 339.341 C 277.804 348.417,274.555 361.908,264.998 366.583 C 255.478 371.241,243.899 367.554,239.606 358.497 L 238.611 356.400 225.280 356.400 L 211.950 356.400 208.690 359.844 C 204.535 364.233,193.676 372.800,192.267 372.800 C 192.177 372.800,190.505 373.676,188.551 374.747 C 185.408 376.470,177.807 379.961,175.900 380.556 C 173.168 381.410,176.182 381.603,190.700 381.505 L 206.200 381.400 206.317 378.301 L 206.434 375.203 262.917 375.101 L 319.400 375.000 319.867 372.800 C 320.123 371.590,320.537 369.070,320.785 367.200 C 321.034 365.330,321.403 362.720,321.605 361.400 C 321.807 360.080,322.171 357.650,322.414 356.000 C 322.657 354.350,323.022 351.920,323.225 350.600 C 323.429 349.280,324.405 342.620,325.394 335.800 C 327.428 321.774,327.536 321.039,328.004 318.000 C 328.633 313.915,329.233 309.815,329.614 307.000 C 329.823 305.460,330.177 303.030,330.400 301.600 C 330.623 300.170,330.983 297.740,331.200 296.200 C 331.417 294.660,331.777 292.230,332.000 290.800 C 332.223 289.370,332.597 286.850,332.830 285.200 C 333.063 283.550,333.427 281.030,333.639 279.600 C 333.851 278.170,334.185 275.920,334.380 274.600 C 334.575 273.280,335.124 269.590,335.600 266.400 C 336.076 263.210,336.630 259.475,336.832 258.100 C 337.035 256.725,337.368 254.475,337.573 253.100 C 337.778 251.725,338.136 249.250,338.369 247.600 C 338.602 245.950,339.141 242.260,339.568 239.400 C 339.994 236.540,340.711 231.680,341.161 228.600 C 341.612 225.520,342.601 218.770,343.361 213.600 C 344.120 208.430,345.022 202.220,345.364 199.800 C 345.950 195.658,346.272 193.509,347.208 187.502 C 347.422 186.126,347.887 182.930,348.242 180.400 C 348.596 177.870,348.954 175.685,349.038 175.545 C 349.505 174.768,115.314 174.359,114.091 175.135 M136.705 243.883 C 137.202 243.979,137.922 243.975,138.305 243.875 C 138.687 243.775,138.280 243.696,137.400 243.701 C 136.520 243.705,136.207 243.787,136.705 243.883 M132.801 245.798 C 132.286 246.348,131.939 246.864,132.032 246.946 C 132.124 247.028,132.619 246.578,133.130 245.947 C 134.276 244.535,134.074 244.444,132.801 245.798 M144.400 253.159 C 144.400 253.531,146.754 255.799,146.903 255.571 C 146.964 255.477,146.426 254.830,145.707 254.134 C 144.988 253.438,144.400 252.999,144.400 253.159 M155.896 261.846 C 156.012 262.921,156.172 263.875,156.253 263.967 C 156.572 264.329,156.365 260.965,156.037 260.446 C 155.822 260.107,155.768 260.651,155.896 261.846 M154.229 266.762 L 153.058 268.200 154.409 266.913 C 155.151 266.205,155.678 265.558,155.579 265.475 C 155.481 265.392,154.873 265.971,154.229 266.762 M143.900 267.882 C 144.395 267.978,145.205 267.978,145.700 267.882 C 146.195 267.787,145.790 267.709,144.800 267.709 C 143.810 267.709,143.405 267.787,143.900 267.882 M129.792 280.100 L 126.200 283.800 129.900 280.208 C 133.336 276.872,133.782 276.400,133.492 276.400 C 133.432 276.400,131.767 278.065,129.792 280.100 M89.905 288.283 C 90.402 288.379,91.122 288.375,91.505 288.275 C 91.887 288.175,91.480 288.096,90.600 288.101 C 89.720 288.105,89.407 288.187,89.905 288.283 M82.800 288.800 L 81.800 289.120 82.800 289.113 C 83.350 289.109,84.340 288.968,85.000 288.800 L 86.200 288.495 85.000 288.487 C 84.340 288.483,83.350 288.624,82.800 288.800 M96.000 288.800 C 96.550 288.976,97.360 289.120,97.800 289.120 C 98.433 289.120,98.392 289.054,97.600 288.800 C 97.050 288.624,96.240 288.480,95.800 288.480 C 95.167 288.480,95.208 288.546,96.000 288.800 M78.400 289.600 C 77.596 289.857,77.557 289.923,78.200 289.932 C 78.640 289.938,79.360 289.789,79.800 289.600 C 80.819 289.162,79.768 289.162,78.400 289.600 M75.000 290.400 C 74.496 290.617,74.422 290.744,74.800 290.744 C 75.130 290.744,75.760 290.589,76.200 290.400 C 76.704 290.183,76.778 290.056,76.400 290.056 C 76.070 290.056,75.440 290.211,75.000 290.400 M104.000 291.451 C 105.805 292.737,108.220 295.412,108.935 296.920 C 109.655 298.436,110.177 298.956,109.720 297.700 C 108.948 295.578,106.391 292.670,104.200 291.422 C 103.028 290.755,103.023 290.755,104.000 291.451 M66.600 293.014 C 65.600 293.496,65.566 293.551,66.400 293.348 C 67.533 293.071,68.807 292.421,68.200 292.430 C 67.980 292.433,67.260 292.696,66.600 293.014 M138.400 300.402 C 137.800 300.595,138.440 300.637,140.000 300.506 C 141.430 300.386,142.675 300.223,142.767 300.144 C 143.089 299.865,139.388 300.084,138.400 300.402 M144.833 300.144 C 144.925 300.224,146.350 300.385,148.000 300.503 C 149.758 300.628,150.503 300.588,149.800 300.406 C 148.587 300.091,144.525 299.878,144.833 300.144 M48.400 301.633 L 47.400 302.448 48.700 301.814 C 49.415 301.465,50.000 301.094,50.000 300.990 C 50.000 300.592,49.363 300.848,48.400 301.633 M153.400 301.200 C 153.840 301.389,154.560 301.538,155.000 301.532 C 155.643 301.523,155.604 301.457,154.800 301.200 C 153.432 300.762,152.381 300.762,153.400 301.200 M107.601 302.598 C 107.086 303.148,106.739 303.664,106.832 303.746 C 106.924 303.828,107.419 303.378,107.930 302.747 C 109.076 301.335,108.874 301.244,107.601 302.598 M157.400 302.000 C 157.840 302.189,158.470 302.344,158.800 302.344 C 159.178 302.344,159.104 302.217,158.600 302.000 C 158.160 301.811,157.530 301.656,157.200 301.656 C 156.822 301.656,156.896 301.783,157.400 302.000 M160.400 302.800 C 160.730 303.013,161.270 303.188,161.600 303.188 C 162.133 303.188,162.133 303.145,161.600 302.800 C 161.270 302.587,160.730 302.412,160.400 302.412 C 159.867 302.412,159.867 302.455,160.400 302.800 M105.359 305.300 C 103.607 307.321,103.087 308.000,103.290 308.000 C 103.407 308.000,104.167 307.190,104.979 306.200 C 106.481 304.366,106.779 303.663,105.359 305.300 M124.000 305.620 L 123.000 306.422 124.100 305.947 C 124.705 305.685,125.200 305.320,125.200 305.136 C 125.200 304.679,125.145 304.702,124.000 305.620 M40.800 306.849 C 39.406 308.071,39.405 308.072,40.688 307.219 C 41.396 306.748,42.082 306.191,42.212 305.981 C 42.597 305.357,42.277 305.554,40.800 306.849 M121.185 307.632 L 119.800 308.863 121.088 308.013 C 122.230 307.259,123.093 306.400,122.708 306.400 C 122.632 306.400,121.947 306.954,121.185 307.632 M35.988 311.100 L 33.400 313.800 36.190 311.200 C 37.724 309.770,39.059 308.555,39.156 308.500 C 39.254 308.445,39.163 308.400,38.955 308.400 C 38.747 308.400,37.412 309.615,35.988 311.100 M113.800 314.906 C 112.464 316.730,111.664 318.039,112.275 317.400 C 113.212 316.420,115.282 313.549,115.148 313.415 C 115.067 313.334,114.460 314.004,113.800 314.906 M186.400 313.620 C 187.787 314.561,188.578 314.835,187.600 314.036 C 187.050 313.586,186.420 313.217,186.200 313.215 C 185.980 313.213,186.070 313.396,186.400 313.620 M32.744 314.700 C 31.593 316.089,31.106 316.800,31.304 316.800 C 31.414 316.800,31.986 316.170,32.573 315.400 C 33.663 313.971,33.795 313.432,32.744 314.700 M188.800 314.954 C 188.800 315.055,189.982 315.965,191.427 316.975 C 192.872 317.985,193.941 318.628,193.802 318.404 C 193.508 317.928,188.800 314.681,188.800 314.954 M194.422 319.100 C 194.434 319.265,195.019 319.838,195.722 320.374 L 197.000 321.349 195.825 320.074 C 194.603 318.749,194.385 318.597,194.422 319.100 M198.400 322.600 C 199.146 323.370,199.847 324.000,199.957 324.000 C 200.067 324.000,199.546 323.370,198.800 322.600 C 198.054 321.830,197.353 321.200,197.243 321.200 C 197.133 321.200,197.654 321.830,198.400 322.600 M27.665 323.417 C 27.409 323.978,27.207 324.654,27.216 324.919 C 27.224 325.183,27.497 324.788,27.822 324.039 C 28.505 322.465,28.361 321.890,27.665 323.417 M94.649 326.615 C 94.512 326.973,94.418 327.656,94.441 328.133 C 94.467 328.681,94.603 328.486,94.810 327.603 C 95.160 326.116,95.065 325.533,94.649 326.615 M202.574 327.800 C 203.967 329.852,204.252 330.095,203.477 328.571 C 203.134 327.895,202.549 327.090,202.178 326.782 C 201.807 326.474,201.985 326.932,202.574 327.800 M107.646 327.267 C 107.621 327.634,107.496 328.264,107.370 328.667 C 107.152 329.362,107.163 329.363,107.597 328.687 C 107.848 328.296,107.973 327.666,107.873 327.287 C 107.711 326.668,107.688 326.666,107.646 327.267 M25.455 331.455 C 25.313 332.486,25.274 333.408,25.369 333.502 C 25.463 333.596,25.665 332.839,25.818 331.818 C 25.971 330.798,26.010 329.876,25.904 329.771 C 25.798 329.665,25.596 330.423,25.455 331.455 M93.850 331.250 C 93.519 332.907,93.581 343.212,93.928 344.083 C 94.078 344.459,94.200 341.444,94.200 337.383 C 94.200 333.322,94.178 330.000,94.150 330.000 C 94.123 330.000,93.988 330.563,93.850 331.250 M106.655 331.855 C 106.513 332.886,106.474 333.808,106.569 333.902 C 106.663 333.996,106.865 333.239,107.018 332.218 C 107.171 331.198,107.210 330.276,107.104 330.171 C 106.998 330.065,106.796 330.823,106.655 331.855 M204.713 331.819 C 205.084 332.820,205.439 333.482,205.503 333.291 C 205.631 332.906,204.493 330.000,204.214 330.000 C 204.117 330.000,204.342 330.819,204.713 331.819 M205.901 336.600 C 206.014 338.140,206.172 339.475,206.253 339.567 C 206.547 339.900,206.335 335.378,206.020 334.600 C 205.835 334.142,205.784 334.998,205.901 336.600 M24.909 337.600 C 24.909 338.590,24.987 338.995,25.082 338.500 C 25.178 338.005,25.178 337.195,25.082 336.700 C 24.987 336.205,24.909 336.610,24.909 337.600 M218.250 341.650 C 218.109 342.353,218.069 343.002,218.159 343.092 C 218.250 343.183,218.448 342.691,218.600 342.000 C 218.752 341.309,218.793 340.659,218.691 340.558 C 218.589 340.456,218.391 340.947,218.250 341.650 M251.887 342.009 C 252.595 342.751,253.242 343.278,253.325 343.179 C 253.408 343.081,252.829 342.473,252.038 341.829 L 250.600 340.658 251.887 342.009 M106.672 343.000 C 106.799 344.100,106.969 345.075,107.051 345.167 C 107.332 345.482,107.120 342.999,106.780 342.000 C 106.551 341.326,106.516 341.651,106.672 343.000 M25.693 344.400 C 25.693 345.170,25.775 345.485,25.876 345.100 C 25.976 344.715,25.976 344.085,25.876 343.700 C 25.775 343.315,25.693 343.630,25.693 344.400 M203.878 345.005 C 203.512 345.772,203.295 346.400,203.396 346.400 C 203.670 346.400,204.884 343.951,204.701 343.768 C 204.614 343.681,204.244 344.238,203.878 345.005 M222.600 343.880 C 231.363 344.157,246.285 344.174,245.863 343.906 C 245.608 343.744,239.460 343.647,232.200 343.689 C 224.940 343.731,220.620 343.817,222.600 343.880 M255.700 343.876 C 256.085 343.976,256.715 343.976,257.100 343.876 C 257.485 343.775,257.170 343.693,256.400 343.693 C 255.630 343.693,255.315 343.775,255.700 343.876 M26.244 347.000 C 26.573 348.471,26.802 348.790,26.794 347.767 C 26.791 347.345,26.605 346.730,26.382 346.400 C 26.085 345.962,26.048 346.124,26.244 347.000 M94.468 347.000 C 94.462 347.440,94.611 348.160,94.800 348.600 C 95.238 349.619,95.238 348.568,94.800 347.200 C 94.543 346.396,94.477 346.357,94.468 347.000 M198.200 352.182 C 196.660 353.756,194.590 355.728,193.600 356.564 C 192.249 357.705,192.149 357.852,193.200 357.153 C 194.849 356.057,201.984 349.199,201.400 349.271 C 201.180 349.298,199.740 350.608,198.200 352.182 M28.028 352.200 C 28.028 352.420,28.286 353.050,28.600 353.600 C 28.914 354.150,29.172 354.420,29.172 354.200 C 29.172 353.980,28.914 353.350,28.600 352.800 C 28.286 352.250,28.028 351.980,28.028 352.200 M96.106 353.612 C 96.136 354.168,95.571 355.518,94.852 356.612 C 94.121 357.721,93.958 358.117,94.482 357.506 C 96.107 355.611,96.728 354.266,96.377 353.400 C 96.091 352.694,96.059 352.719,96.106 353.612 M251.887 354.409 C 252.595 355.151,253.242 355.678,253.325 355.579 C 253.408 355.481,252.829 354.873,252.038 354.229 L 250.600 353.058 251.887 354.409 M110.000 353.798 C 110.000 354.236,111.976 357.600,112.234 357.600 C 112.344 357.600,111.944 356.745,111.346 355.700 C 110.056 353.448,110.000 353.369,110.000 353.798 M256.400 356.000 L 254.600 356.280 256.200 356.334 C 257.080 356.363,258.070 356.213,258.400 356.000 C 258.730 355.787,258.820 355.637,258.600 355.666 C 258.380 355.696,257.390 355.846,256.400 356.000 M113.904 360.200 C 114.977 361.780,119.479 366.269,121.000 367.275 L 122.200 368.069 121.200 367.197 C 118.910 365.200,116.818 363.153,115.009 361.139 C 113.953 359.963,113.455 359.540,113.904 360.200 M186.900 361.026 C 185.965 361.587,185.200 362.140,185.200 362.255 C 185.200 362.471,187.899 360.938,188.580 360.336 C 189.267 359.728,188.627 359.991,186.900 361.026 M87.800 364.701 C 85.820 366.606,84.920 367.602,85.800 366.914 C 87.381 365.678,91.947 361.183,91.586 361.218 C 91.484 361.228,89.780 362.795,87.800 364.701 M183.500 363.029 C 182.005 363.840,182.096 364.178,183.600 363.400 C 184.260 363.059,184.800 362.694,184.800 362.590 C 184.800 362.332,184.757 362.347,183.500 363.029 M80.600 370.017 C 79.500 370.664,78.764 371.195,78.965 371.197 C 79.406 371.201,82.800 369.242,82.800 368.983 C 82.800 368.722,82.804 368.720,80.600 370.017 M124.800 369.798 C 124.800 370.067,128.849 372.084,129.029 371.905 C 129.111 371.823,128.193 371.273,126.989 370.682 C 125.785 370.092,124.800 369.694,124.800 369.798 M46.400 371.400 C 46.950 371.714,47.580 371.972,47.800 371.972 C 48.020 371.972,47.750 371.714,47.200 371.400 C 46.650 371.086,46.020 370.828,45.800 370.828 C 45.580 370.828,45.850 371.086,46.400 371.400 M162.800 371.600 C 161.976 371.864,161.941 371.926,162.600 371.954 C 163.040 371.973,163.670 371.813,164.000 371.600 C 164.701 371.147,164.214 371.147,162.800 371.600 M50.800 373.182 C 51.130 373.405,51.745 373.591,52.167 373.594 C 53.190 373.602,52.871 373.373,51.400 373.044 C 50.524 372.848,50.362 372.885,50.800 373.182 M132.000 373.182 C 132.330 373.405,132.945 373.591,133.367 373.594 C 134.390 373.602,134.071 373.373,132.600 373.044 C 131.724 372.848,131.562 372.885,132.000 373.182 M71.600 373.618 C 71.162 373.915,71.324 373.952,72.200 373.756 C 73.671 373.427,73.990 373.198,72.967 373.206 C 72.545 373.209,71.930 373.395,71.600 373.618 M68.900 374.276 C 69.285 374.376,69.915 374.376,70.300 374.276 C 70.685 374.175,70.370 374.093,69.600 374.093 C 68.830 374.093,68.515 374.175,68.900 374.276 M151.105 374.283 C 151.602 374.379,152.322 374.375,152.705 374.275 C 153.087 374.175,152.680 374.096,151.800 374.101 C 150.920 374.105,150.607 374.187,151.105 374.283 M61.500 375.082 C 61.995 375.178,62.805 375.178,63.300 375.082 C 63.795 374.987,63.390 374.909,62.400 374.909 C 61.410 374.909,61.005 374.987,61.500 375.082 M143.105 375.083 C 143.602 375.179,144.322 375.175,144.705 375.075 C 145.087 374.975,144.680 374.896,143.800 374.901 C 142.920 374.905,142.607 374.987,143.105 375.083 " stroke="none" fill="#e64042" fill-rule="evenodd"></path></g></svg>